/* XPM */
static char *fd6264b7aaa64990d981e29546d091f8outBocPoR7dMkg75[] = {
/* columns rows colors chars-per-pixel */
"64 64 172 2 ",
"   c #000201",
".  c #000906",
"X  c #020B0C",
"o  c #030E13",
"O  c #061416",
"+  c #091516",
"@  c #07161B",
"#  c #0A171B",
"$  c #07181D",
"%  c #0B1A1D",
"&  c #101D1E",
"*  c #2A1F1A",
"=  c #3E2916",
"-  c #34241E",
";  c #3D241C",
":  c #071720",
">  c #0A1720",
",  c #071A21",
"<  c #0C1C22",
"1  c #101E23",
"2  c #3C1D23",
"3  c #0E2126",
"4  c #112125",
"5  c #122329",
"6  c #1C222E",
"7  c #272427",
"8  c #2B2226",
"9  c #2F2827",
"0  c #23242B",
"q  c #2B2428",
"w  c #2C2B2A",
"e  c #322225",
"r  c #3F2022",
"t  c #362A24",
"y  c #3C2824",
"u  c #362629",
"i  c #362A2C",
"p  c #3E292C",
"a  c #3C2D34",
"s  c #24343C",
"d  c #22383D",
"f  c #3C3039",
"g  c #422D14",
"h  c #482F15",
"j  c #45261F",
"k  c #47281E",
"l  c #4B2B1D",
"z  c #502F1B",
"x  c #453117",
"c  c #4B3115",
"v  c #4E301C",
"b  c #4E3A1D",
"n  c #563617",
"m  c #573817",
"M  c #5C3C16",
"N  c #5D3C17",
"B  c #53341A",
"V  c #583719",
"C  c #57391A",
"Z  c #54391C",
"A  c #5B3B19",
"S  c #603F15",
"D  c #613F1C",
"F  c #432421",
"G  c #462821",
"H  c #4A2B22",
"J  c #412C2D",
"K  c #443424",
"L  c #4E3024",
"P  c #4A3229",
"I  c #523223",
"U  c #523B22",
"Y  c #5A3A22",
"T  c #412F30",
"R  c #4D3836",
"E  c #453538",
"W  c #463B39",
"Q  c #513F33",
"!  c #5E4119",
"~  c #654415",
"^  c #684715",
"/  c #674817",
"(  c #6A4815",
")  c #63431A",
"_  c #68471D",
"`  c #66491A",
"'  c #6D4C1C",
"]  c #714E1A",
"[  c #75521C",
"{  c #79561D",
"}  c #7C591F",
"|  c #5D4221",
" . c #5D4826",
".. c #5C442A",
"X. c #544232",
"o. c #604522",
"O. c #694B23",
"+. c #614329",
"@. c #674B2D",
"#. c #704F20",
"$. c #745221",
"%. c #785723",
"&. c #7D5B21",
"*. c #6A5037",
"=. c #61543A",
"-. c #685739",
";. c #796137",
":. c #2A4642",
">. c #314644",
",. c #3D4744",
"<. c #3F4C47",
"1. c #354C4C",
"2. c #3A4D4D",
"3. c #3B524D",
"4. c #384F53",
"5. c #3C5354",
"6. c #3D565A",
"7. c #404744",
"8. c #414B47",
"9. c #454E4C",
"0. c #584441",
"q. c #46534E",
"w. c #4D574E",
"e. c #4E584E",
"r. c #5F504A",
"t. c #445553",
"y. c #4D5554",
"u. c #4D5A55",
"i. c #47565A",
"p. c #48575B",
"a. c #4E5B5A",
"s. c #535753",
"d. c #525B55",
"f. c #5E5953",
"g. c #555E5B",
"h. c #595E5A",
"j. c #725643",
"k. c #4D645F",
"l. c #55615E",
"z. c #5B635C",
"x. c #7F6941",
"c. c #556461",
"v. c #5B6562",
"b. c #5D6962",
"n. c #56676A",
"m. c #56686A",
"M. c #5F736D",
"N. c #636660",
"B. c #646C63",
"V. c #606F69",
"C. c #6D726C",
"Z. c #6F7D6E",
"A. c #7F756B",
"S. c #627672",
"D. c #727971",
"F. c #7C7E74",
"G. c #815E22",
"H. c #856224",
"J. c #896625",
"K. c #8C6927",
"L. c #896728",
"P. c #8C6929",
"I. c #916D2A",
"U. c #95712B",
"Y. c #9A762E",
"T. c #83653F",
"R. c #806944",
"E. c #85714A",
"W. c #907A57",
"Q. c #9D8768",
"!. c #848778",
"~. c #8C887A",
/* pixels */
"  > % % # < % $ @ % % < < : , , @ @ $ $ $ $ O @ $ @ O O O O @ @ O @ % $ O # # % % % & # # # < < < , < > % O O % 3 % < O O % < % ",
"s   % % % # < % > , # # # # $ : # O O O # $ @ % % % > : < < > < < > > 1 1 5 % # % & 1 % # 1 > # > % < $ @ O % % % % < O < & % < ",
"F.s . & & % & % # + # > # # > # # % % # O $ # # # # $ # % 1 % % # % 1 < 1 5 4 1 < < % # % 4 % $ $ $ $ @ # O @ % % % < O $ + $ < ",
"B.N.d . 1 & & % + + % & % % # # # & % < % % % % < > # + + % % % # # + # # + 1 1 4 1 1 1 > 1 < , @ $ $ $ $ O % $ $ % < O % $ $ % ",
"l.8.M.d   < < < 1 1 5 5 1 4 4 & 1 1 1 1 1 & 1 1 1 4 1 < < < # % # % # @ # < < < % % < > % % 4 4 1 > > % < 1 # < 3 3 < 4 + 3 3 3 ",
"u.<.1.l.m.                                                                                              % % > < 5 3 % % < 3 3 < ",
"l.9.3.=.W B Z 2 l = x ; v v +.@.Y Z Z H | o.D l D n l l n B c 7 0 N ~ M j m M M ; R.T.D j.O.V c U ; c g c - ; .. .j N K $ $ 3 3 ",
"d.q.5.-.Z V B r v v B l l v B l l Z m l m B V z m B l z M B B 9 u N B M l M M j l D V N H M D A M l m M ) l k z B 2 Z c % $ $ 3 ",
"q.q.3.x.N z z r l c B l l z B l l n B l n A B z B B l B S B Z 0 t V B N l A D F k _ S D k V V B B B B B D l l B v r C C % O O % ",
"u.u.5.;.@.z B 2 z Z z l m Z N l l S m k B ] B l B B ' k ^ n B 6 6 m Z [ F ~ S F k D V n z D V V n z B V D l m B j 2 C C @ O < % ",
"u.y.3.T.B B n r V B l l D #.S B B ^ S F A #.V k n n H.G ^ V n 0 6 B m ' l ~ A l k D S n k #.S D m j n n m B l ) j 2 A m + O $ + ",
"g.u.u.E.B l B 2 A V l F ( G.S Z B _ S F ] B ~ r n ] H.F ] ( n 6 6 m m H ~ ~ ~ F j _ B B F _ #.V B j ~ B &.j 2 M k A ! C $ O % % ",
"c.t.c.;.B H B r A D H r ] [ ] A H ~ z r %.n _ r n K.^ F _ V B 6 6 m n H ^ ( ^ ) 2 } ~ V 2 %.^ G.j j ~ ^ J.2 2 S j ' ) V % 4 O 3 ",
"8.<.i.W.B z B 2 V _ H G ] S ' I z _ r F %.S _ F ^ K.~ G M n n 6 n B n H ~ ( ^ ] 2 } _ V 2 G._ P.k j ^ ^ / r 2 / j M ` M % % % 3 ",
"t.y.l.Q.0 8 q 2 D _ H 1 6 6 6 6 6 6 6 6 1 0 6 r I.n ^ G S V 6 6 n ^ n l ~ ^ ^ ^ F 6 6 6 1 6 6 6 6 6 6 6 6 2 2 ~ 6 6 6 f.X $ < $ ",
"y.d.l.X.2 8 q q q 1 6 6 6 6 6 6 6 6 6 6 6 6 6 1 0 n [ k D V 6 6 n ^ n j } ^ n 6 1 0 6 6 0 6 6 6 6 6 6 6 6 6 6 6 6 6 6 w.X 3 < % ",
"a.d.v.Q 0 8 0 8 ~ ] _ 0 0 6 6 6 6 6 6 6 6 1 0 I ~ n { j n n 6 6 V ^ ^ F L ^ ~ n H 1 6 6 6 6 6 6 6 6 6 6 0 2 I.~ 1 6 6 6 X % % # ",
"t.g.h.K l V 8 2 S ] $.H V ] Z z z { ~ r ~ Z 2 H D ^ { r m n 6 6 ^ ^ ^ ~ H ^ ^ ^ F ^ ^ B 2 n n S ^ I ^ ^ n 2 I.^ _ H S n . % @ % ",
"t.d.z.y z B z 2 ~ ] #.H [ [ N H B ] ] F S V F J _ ^ [ F n n 0 0 ^ ^ n S H G.V ^ F ^ ^ m 2 n n ( ( I ^ ^ S 2 ~ U.V H D n   < % $ ",
"t.d.g.y l B z 2 _ ] G.G { N ~ l ^ ' ] r ^ [ D F D { S k n n S 1 V ^ n ~ H I.S ^ F ] ^ n 2 n S ( Z I ( ^ 2 r ~ U.n z M B . % % $ ",
"t.d.g.y l n h 2 ~ [ F I S ~ S H ( [ S r S [ S j D { ( k ^ ^ S 6 n ] S ^ H #._ n F ] D D 2 S ^ ( S I ( ( r l ^ U.^ j N B . > > @ ",
"q.h.g.y l n h 2 S H.S F M ~ ~ k ^ { ^ r [ ( S F S { ( l ^ ^ V 6 n ^ ^ ^ G [ ^ ^ F ^ D S 2 ~ ^ Z S I ^ V 2 r ^ U.^ j N m . # 3 < ",
"u.g.h.r l B l r S J.S r V ^ ^ k S G.S j [ ( ^ r ] [ ^ F ^ ^ V 6 n ( ^ z F [ ^ ^ F ^ _ S 2 ^ ^ m ^ L _ S 2 2 ~ Y.^ k ! Z   # , < ",
"u.d.z.; z z z r S H.&.F n S ~ F ^ [ 2 F [ ( S r ] D ^ H n n V 6 n ( ^ r K.S { _ r H.~ ^ 2 ^ ^ ^ ^ I ^ S [ 2 n Y.N j ! *.. % , , ",
"t.g.z.* l B B r S ] P.r n ^ n j ^ [ 2 r [ ^ S r ( D l H D V V 1 n ( ^ r P.~ ] ( 2 H.] ^ 2 ^ V ^ F I ^ ~ { 2 ~ Y.S j N Z . @ < > ",
"q.y.d.* l B z r S V I.r n V ~ j ^ G.j j ^ ^ ^ r ] ( F k ^ n V 0 ( ^ ^ 2 P._ ^ ( r H.] ^ 2 ^ ^ ( I H ^ ^ { 2 Y.^ / k ) m . # , , ",
"y.y.l.- l B B r D B G.F V M ~ F S G.S l ^ ^ D r ^ ] j F ^ n n 6 1 V ^ 2 P.^ ^ S 2 H.] ^ 2 ^ ^ ( H F F ^ [ 2 Y.^ ~ k ) B . O , $ ",
"t.u.g.- V n n r ] B P.F n n ~ F ( G.V H ( ( ( r ( ] k l ^ n n 6 0 V ^ 2 G.G.^ ^ j J.] ^ 2 V ^ ^ l F l S $.2 Y./ ~ B ` m   O : $ ",
"q.d.c.J Z z B r #.B L.r B V ~ F ( G.n F S ^ ( r ^ ^ H ^ ^ V V 6 0 n ^ 2 K.G.^ ~ k K.] ^ 2 G.^ ( ( H m S [ 2 Y.~ / j ' m X + , $ ",
"u.s.g.R l B B r _ B L.r &.B ~ F ] G.n H V ^ ( r ^ ^ l ( S n V 6 6 V ^ 2 K.~ G.n F J.] ~ 2 G.( ^ ^ F S ~ [ 2 Y./ / k ` c   + $ $ ",
"a.h.v.T B B Z r B ] P.F %.n ^ l { ( { H S ( ( r ^ S H ( ^ n n 1 6 B ^ ^ 2 ^ ^ k H ^ ] ~ 2 ^ } m ^ 2 ^ } m 2 Y./ l ~ ` B . $ % $ ",
",.w.z.0.Z z V r n ] &.r %.Z ^ k ] S %.k S S ( F ^ D H ( ^ V n 0 6 n S ^ 2 G.^ j Y ^ ( ^ 2 m { m ^ F ^ } m 2 Y./ F j ` B   @ $ @ ",
"7.y.g.r.Z z B j ~ #.%.F &.n ( F n [ &.k S ^ ' F _ $.0 j ^ ~ m 6 6 n S S 2 6 ~ j J.^ S ^ 2 ( ^ V ( j ^ G.B 2 Y.^ F j ~ c . $ @ $ ",
"s.y.u.u B z B r ) ' %.F M %.( l n [ G.k S ^ _ F ~ $.1 j ^ ~ m 6 6 n S B 2 6 n F J.^ ( n 2 ( ^ n ( k ^ G.m 2 Y.~ F 2 ~ h X < @ @ ",
"d.s.i.P l l Z r ( %.{ 2 m %.S F n [ G.l S ( ^ F ^ Y 6 0 ^ ~ ~ 6 6 V ~ k 6 6 n r K.( ^ V 2 ^ n n ^ k ^ ] n 2 P.^ F F D B X > : @ ",
"e.h.a.y l n z j N ) H.2 S %.~ l n { G.k S ^ D G w 0 6 6 6 ^ ^ 6 6 S S 2 6 6 8 H ^ ^ ~ ^ 2 ^ n n { j G.n Z 2 L.^ j 2 ) c . > @ : ",
"e.l.p.p l B z 2 V N &.r S &.^ F n ] G.k S ^ ~ F q ) / r q ^ ^ 6 6 B S 6 F { 0 0 ^ ^ ~ ^ r n n n l j G.n n 2 H.( F r N B   > @ $ ",
"w.z.z.p l z B j A ( &.y S &.^ H S ] I F S ^ ^ G w C l j 7 n / 6 6 m ~ 6 F G.6 0 J.^ ~ ^ 2 n ^ n H k ] n S 2 G.^ H F ! m . > @ @ ",
"3.a.z.G l z F F n ^ &.F ~ &.^ F ^ _ I F S ~ ~ F J.0 0 6 ^ ( m 6 6 n ~ 6 6 6 6 F G.~ ~ ^ 2 ^ G.^ H j ] n S _ 2 ~ I F F m X < O @ ",
":.:.z.K l B j l V ~ G.F N &.( j ^ S Y j Z ^ ^ F J.~ ~ l ^ ( B 6 6 n ~ ^ I ^ ^ H ~ G.~ ^ 2 ^ H.^ G.j S ' S F 2 ^ H ~ F C X > O @ ",
"t.6.d.B l Z j F ^ ~ H.j M %.^ k ~ S G.z D ^ ] F J.~ ~ k ~ ( B 6 6 ~ n ^ H _ ^ ] k ^ { ^ 2 2 G.^ G.G ~ ~ Z 2 2 ^ G ^ V n . < % @ ",
"4.5.y.P l V V F ~ ~ G.j ~ ) ^ l ~ ~ G.z S ^ ] F P.~ H k ^ ^ m 6 6 ~ n ^ H ^ ( ] j V ^ [ 2 2 K.S G.F ] _ ~ 2 2 ^ F ~ M m X < O @ ",
"5.5.g.H l Z B F ! ~ H.F S S ( j ^ ~ Y z S S G.l G.~ G ~ ^ n V 6 6 n ~ ^ H ~ ^ ] k n ^ ] 2 2 K.^ H.k ] ~ ^ 2 2 ~ F ( Z B . < # @ ",
"5.4.h.u l B v k [ ~ { j N S ^ j ^ S I z V ~ G.k G.^ ] F ^ V 0 6 6 n ~ ~ H ^ ^ ^ k ^ ^ n 2 ^ K.^ G.G _ { ^ 2 ~ ^ F ) m m O % $ @ ",
"5.5.z.u l z l l ~ n } j n S ^ F ~ ~ Y z n S H.F &.( ] G ~ m 6 6 6 n ^ ^ F ^ ^ ~ j ^ ^ V 2 ^ L.~ G.G Z [ ^ 2 S [ G ~ A V X < $ $ ",
"2.5.h.l l l l k ~ B } j n S ^ j ~ B I n n ^ H.k &.^ ' G ~ m 6 6 n n ^ j G ~ ^ V F ^ ^ V 2 _ n G.o.G ^ { _ 2 ~ G.6 F A A o 1 $ O ",
"a.m.g.e e e k j ~ ~ i 6 0 6 6 6 6 6 6 0 6 6 H.j Z G.] j / B 6 6 n n ^ r F Z ^ V F 6 6 0 6 6 6 0 6 6 1 0 6 2 G.6 6 6 6 6 + 1 $ O ",
"c.g.2.e e 8 2 0 6 6 6 6 0 6 6 0 6 6 6 6 6 6 6 6 0 G.~ j ^ n 6 6 n n ^ r F V ^ 1 1 0 6 6 6 6 6 6 6 6 6 6 6 6 6 6 6 6 6 1 O 5 % < ",
"t.h.2.e e e B 8 6 6 0 0 6 6 6 6 6 6 6 6 6 6 6 F m &.[ j ^ m 6 6 B m ~ F F N ~ j G 6 6 6 6 6 6 6 6 6 6 6 6 6 G.6 6 6 6 6 X # % & ",
"9.c.5.e e e B 2 &.~ _ 1 6 6 { G / ` j ~ / ) H.F j &.j F N n 6 0 m m ^ 2 2 D ^ r L ^ n 2 2 ^ ~ } _ l N V b 2 G.Z 6 6 n 6 o 1 & % ",
"g.z.t.l l V B ; &.~ / O.( n { j ^ ` l H / / { F F } F j ! Z 6 0 B ^ ^ 2 F N n F L n n 2 2 ( ~ { ( F ^ n V r 2 m z l Z n o & 1 % ",
"g.v.>.E l z z j &.m / F ^ B { j _ ~ Z z ~ / ' j j &.j G N m 6 6 M ~ ( 2 %.! B F z S Z 2 2 ( m %.N j ( n [ 2 2 / G ~ ~ n o & # 1 ",
"n.g.p.u l B z j G.V ~ F ^ ' ^ G ( Z n z ~ _ ] r H ^ ^ H ) m 6 6 M ~ ( 2 Y M n j &.~ n 2 2 ( %.^ N F ^ m [ 2 ] ^ j / ~ m . 1 % > ",
"h.g.Z.T l z k j ~ $.~ F ( ' ^ j ~ D D z ^ ^ G.2 H / ^ F ' m 6 6 B ~ ( 2 I F ~ F } ~ V ( 2 ^ $.n A F ^ / ( 2 ! ^ k ) ~ M . # # < ",
"v.B.b.J j l k j ~ G.~ G ^ } ^ G B D n z ~ J.~ F &.~ ~ F B B 6 6 6 M ( ; D F ~ F &.~ _ ^ 2 ^ G.V A r ( / / 2 ) ~ F ! ~ M X < + % ",
"A.C.S.J k B l j _ G.^ F ^ [ ^ j ~ _ z A ^ H.~ F { m z k Y m 6 6 6 M ( B l H ~ r } V ] ^ 2 } ^ ^ / j ( ` ` 2 / / F ! ` ^ o 4 % % ",
"z.l.k.J l z z k ) &.^ G ] ~ ^ F ~ _ I A G.^ S F [ n ~ G Y n 6 6 6 V N Z l F ~ F } n ] ^ 2 } ( ( / j ( ^ ~ 2 N ~ l ! ` M   $ 3 % ",
"C.D.D.p I z z j ^ G.^ #.^ ~ n G ^ n I z P.^ F j ] n ^ k D B V 6 6 n ~ ~ j F ^ G ( ] #.^ 2 ' ( ( / j ( ( / 2 ) ~ F A ) V . # < > ",
"z.B.B.J z z z j / ^ G.l ^ S n G ^ n k %.] ^ 2 F ~ n ~ I G V V 6 6 n ) / 2 F ^ ^ r G.( ( 2 D ^ ( ^ 2 ~ G.m 2 ` / y ) ` M . % % < ",
"u.z.v.J I B B j ~ ~ } H ^ ~ S G ^ S k K.O.^ 2 j V S ^ I ^ n A 6 6 n ) / 2 F ( ^ r H.( ( 2 A ^ ^ ( r ^ H.B 2 ) ( F ) / m   < < < ",
"u.a.9.i h B V j ^ S ^ 2 ^ ~ n k S S Y k V ^ n ~ j S ^ I ^ ^ ~ 1 1 M ^ ^ 2 / ^ ^ r S G.( 2 2 ( ( ( r H.^ ^ 2 ~ ) F F N m a.  1 < ",
"g.d.a.a z z S l ^ n ^ F ~ ^ n G ^ ^ I n ^ ^ ~ l r S H.l ^ ^ ^ 0 0 n ~ ^ 2 ~ ^ ^ j ~ G.( 2 2 ( ( ^ ; K.~ ~ 2 / ) F F N m ~.y.  1 ",
"s.g.l.E z n S k ^ n n j ~ ^ n k B n n l S ( ~ r r G.G.F n ~ B 6 6 V ^ n 2 ^ ~ m j ^ B ' 2 2 ( ( B r H.~ S 2 ^ m F F N V V.W.t.  ",
"g.l.n.f n n ^ l ^ n n n ^ ~ n G n n n ~ ^ n n F n n n z n Z V V 6 V n B ; B m B ~ n n B 2 2 ( ( B r G.V ~ 2 m Z r F ) Z V.z.!.4."
};
