/* XPM */
static char *_25162bac5f94243db9f0cc900eeedbb373lBmLPKLdrUFHn[] = {
/* columns rows colors chars-per-pixel */
"66 66 206 2 ",
"   c #000200",
".  c #010904",
"X  c #020C0C",
"o  c #030F14",
"O  c #051315",
"+  c #07161B",
"@  c #09171B",
"#  c #07191C",
"$  c #0B1B1D",
"%  c #091816",
"&  c #101E1E",
"*  c #0E211D",
"=  c #10201D",
"-  c #071821",
";  c #0C1D22",
":  c #081720",
">  c #101E22",
",  c #0E2022",
"<  c #0D2026",
"1  c #0E2125",
"2  c #0D2125",
"3  c #0E2329",
"4  c #0E2228",
"5  c #102023",
"6  c #112122",
"7  c #112126",
"8  c #122125",
"9  c #112329",
"0  c #12252A",
"q  c #13242A",
"w  c #15292D",
"e  c #1A2B2D",
"r  c #162B32",
"t  c #1B2D34",
"y  c #112730",
"u  c #1D3235",
"i  c #1C3339",
"p  c #21322F",
"a  c #233335",
"s  c #283536",
"d  c #23363B",
"f  c #28373A",
"g  c #253A3E",
"h  c #2A3A3D",
"j  c #313E3E",
"k  c #25403F",
"l  c #31413E",
"z  c #253D42",
"x  c #2A3E43",
"c  c #323E42",
"v  c #2B4245",
"b  c #2B444A",
"n  c #2B4544",
"m  c #334345",
"M  c #334945",
"N  c #3C4B47",
"B  c #32464A",
"V  c #344B4C",
"C  c #3B4C4C",
"Z  c #384545",
"A  c #36514F",
"S  c #3C524E",
"D  c #3C5047",
"F  c #364F52",
"G  c #3B4E52",
"H  c #3C5353",
"J  c #3E5954",
"K  c #3C5559",
"L  c #3E5A5A",
"P  c #355052",
"I  c #434C46",
"U  c #414E4B",
"Y  c #43534D",
"T  c #4B544E",
"R  c #46584F",
"E  c #4F5A4E",
"W  c #435146",
"Q  c #51554F",
"!  c #435554",
"~  c #4A5553",
"^  c #445A54",
"/  c #4C5B55",
"(  c #425759",
")  c #4C5759",
"_  c #445B5B",
"`  c #4C5C5B",
"'  c #525755",
"]  c #535B55",
"[  c #535D5B",
"{  c #5A5E5C",
"}  c #5C5E55",
"|  c #605E5B",
" . c #45605F",
".. c #4C625D",
"X. c #496056",
"o. c #536156",
"O. c #54625D",
"+. c #5C635D",
"@. c #546A5E",
"#. c #5B6A5D",
"$. c #62665D",
"%. c #636A5D",
"&. c #6A6D5F",
"*. c #62705F",
"=. c #465D61",
"-. c #4B5E62",
";. c #4C5F6A",
":. c #545E61",
">. c #456263",
",. c #4D6363",
"<. c #4F6965",
"1. c #4E6569",
"2. c #4D696A",
"3. c #466568",
"4. c #546563",
"5. c #5C6562",
"6. c #556A64",
"7. c #5C6B64",
"8. c #536669",
"9. c #5E6468",
"0. c #546B6B",
"q. c #5B6D6B",
"w. c #5D7167",
"e. c #55716E",
"r. c #5C716C",
"t. c #556C70",
"y. c #5A6E72",
"u. c #5D7272",
"i. c #5E7A76",
"p. c #5F7979",
"a. c #567374",
"s. c #626662",
"d. c #646B64",
"f. c #6B6D64",
"g. c #656D6A",
"h. c #6A6E6A",
"j. c #706F69",
"k. c #706F64",
"l. c #647165",
"z. c #6D7265",
"x. c #64726C",
"c. c #6C726C",
"v. c #65796E",
"b. c #6E796C",
"n. c #737267",
"m. c #73746D",
"M. c #75796D",
"N. c #646D71",
"B. c #696E72",
"V. c #647473",
"C. c #6D7572",
"Z. c #657974",
"A. c #6C7A74",
"S. c #65757B",
"D. c #6D757A",
"F. c #657B7A",
"G. c #6D7C7A",
"H. c #737572",
"J. c #797572",
"K. c #747A74",
"L. c #7B7C74",
"P. c #747C7A",
"I. c #7C7E7A",
"U. c #847E75",
"Y. c #827E7B",
"T. c #917F79",
"R. c #6D817D",
"E. c #748374",
"W. c #74827E",
"Q. c #7C827C",
"!. c #7C8679",
"~. c #84806F",
"^. c #848176",
"/. c #83837C",
"(. c #8A857A",
"). c #818A7F",
"_. c #8C8A7E",
"`. c #858877",
"'. c #918B7E",
"]. c #6F7B83",
"[. c #737E81",
"{. c #6A8581",
"}. c #758482",
"|. c #7C8581",
" X c #7C8985",
".X c #838583",
"XX c #848B82",
"oX c #8D8C84",
"OX c #818E89",
"+X c #888D8B",
"@X c #888784",
"#X c #938481",
"$X c #938D84",
"%X c #938F8A",
"&X c #8B9287",
"*X c #959286",
"=X c #999186",
"-X c #93928B",
";X c #9E9589",
":X c #9A9A8C",
">X c #8C9291",
",X c #919595",
"<X c #A4958C",
"1X c #A19E97",
"2X c #A9A29A",
"3X c #AAADA1",
/* pixels */
"= % > ; 7 > 9 ; ; ; ; < < , ; ; < , ; , , - # # # < 3 < ; ; + # ; - , - # , - * 6 7 q 9 ; > > > > @ & & & 6 > ; 6 7 ; 4 < ; < < ; ; ",
"%.w @ > ; ; ; ; q 4 , ; ; # + + $ $ # $ * - , - - # ; $ ; ; ; ; ; ; - - * - < < ; $ $ $ $ > > > $ $ @ w q q > > > > $ < < ; ; ; ; + ",
"} f.q + > ; ; ; 0 q 7 , $ $ $ ; 4 ; ; ; < $ # + - , - $ < ; ; ; < < * ; $ * ; ; ; ; 4 7 8 > > $ > 7 > w 9 < ; 4 ; ; ; 4 w 8 6 $ $ & ",
"+./ h.q o ; ; $ 4 4 $ $ $ $ $ $ - 4 ; ; - , - # # - ; # # - ; ; # # + # # + + $ + + > $ 6 > ; > > $ $ ; ; ; < ; > ; $ ; 3 * $ $ ; ; ",
"} / ~ M.s . $ @ ; 6 < * $ $ , ; > > ; ; ; $ ; ; - ; ; # - ; $ $ - - + $ # # - - $ ; ; & & > & > ; $ $ 9 4 * < ; ; ; @ $ ; , , , & $ ",
"+.' :.] n.f   ; 6 $ $ 6 * ; ; ; $ ; ; $ $ + $ $ # * # $ $ < , $ ; > > , 4 < 6 < q 8 e > & 8 8 > > & 9 ; $ ; ; ; $ @ $ > * ; ; 7 ; > ",
"d.~ f.~ ] M.h   = $ & = > & + ; 6 $ $ ; ; $ $ & $ $ $ ; ; ; ; $ ; > 8 > > $ 6 q > 7 e 8 8 9 > > $ > q ; $ ; ; ; @ $ O $ & ; $ 7 $ $ ",
"d.U s.U E ~ I.h . 8 & & & $ % & 6 $ & > $ ; 8 > , , = > * 6 ; & $ @ > > > $ % $ $ $ & > 8 8 q > > > 7 9 ; + - # ; ; + $ + $ $ ; ; $ ",
"d._ 6.[ d.K.c.s.C . 9 ; > q 8 w 8 8 q > 8 8 8 8 8 > 7 7 8 8 8 8 > 7 7 ; ; ; ; $ $ ; 7 ; ; ; > > > $ $ 9 8 8 > > $ > 7 @ < < q < > > ",
"O.H _ n ^ 4.+.I x.M   . .       . . . .       .   . .       .                       . .                     .     ; * ; < q < ; > & ",
"#._ ! B >.s.[ U A O.V.V.y.8.q.5.P.q.d.H.J.Y.K.c.K.I.^./.I.v.K.x.I.C.}.c.f.m.m.h.K.n.m.H.H.H.h.H.f.M.L.D.6.x.q.V.G.X $ ; * 9 ; ; ; > ",
"O. .( K ^ { +.U H ^ q.q.q.V.q.q.H.Z.H.h.Q.^.K.L.L.L.z.Q.-XP.E.d.K.K.Z.H.h.j.J.s.H.h.c.H.c.c.h.H.H.h.H.q.8...4.q.v.X > , # , - ; > > ",
"X. .! S _ 5.[ T ! ! 4.6.6.6.6.4.Q.V.C.K.L.H.j.J.m.m.f.Q.I.L.H.g.H.P.P.E.P.c.9.9.N.s.%./.@Xg.{ h.I.f.K.8.V.@.e.q.v.X * $ $ $ $ , > > ",
"_ _ _ M ^ ` R ~ S C 6.e.6./ Z.5.K.G.C.m.H.I.c.c.h.g.c.d.d.+.c.H.K.P.d.R.6.q.y.V.8.q.E.M.L.+.d.K.n.@X%X7./ 6.S.4. XX - - # % $ ; $ ; ",
"H _ H V _ :.[ ] ! S 7.Z.v.Z.7.l.H.r.H.H.K.m.m.L.H.m.M.c.m.H.M.Q.H.h.U.:X!.|.G..X.XoX3Xd.c.P.P.K.Q.Q.oX>XC.V.C.P.1X  ; ; $ $ # ; > $ ",
"H H ^ V ^ O./ ) H _ o.d.A.Z.Z._ ~ H ~ [ ) ` :.) ~ :.:.[ ` :.[ ) [ ! ) +.d.5.4.[ [ ! q.` M =.G G F F 8.+XH.h.K.^.:X. $ $ $ ; O - ; + ",
" .J _ M H :.5.[ [ O.[ h.h.H.H.h.f - q r r 4 * ; 3 < < - < ; 3 y 0 4 4 > > > q > 7 6 t r r 9 r u $ 9 H h.m.H.H.K.=XX ; ; + ; $ $ 4 ; ",
"_ H X.b ^ 8.O.! 5.` g.5.~ { h.+.M.C O u i u r i i i i r r r r w w y y w y t a a a t i u d t u w h m K |.H.|.@XI.;X. : ; 7 ; $ ; y 3 ",
"_  ...B ! ` U Y ) N P.' { 5.5.5.d.U.) O p a u t e t w u r u i u i d f f x c d x a h t t t q 0 g C f G P.H.H.h.L.=X. $ ; - # $ $ - ; ",
"J ,.^ H H ! ~ ] s.U c.7.+.d.5.5.d.#.$X~ 8 a a a s a a f s a a s e a e w q t a a u t d u t w z V B f ( }.[ g.s.f.<XX + ; , < $ - ; ; ",
"^ ` _ H ( _ ) ] +.C J.Y.l.v.c.#.<.6.M.z.Y a a d d d d d d x d a d d u a d d t r t t s s d h M C v c G 6.P.] s.s.;XX + < , < # - ; > ",
"^ ( =.H ( ` ..{ $.( n./.M.d.c.4.O.<.n.O.x.Z.V.P.Q._.$X'.'.*X-X`.oXXX/.Y.Y.^._.U./.(.S.x.W.m n l b j H }.Z.5.g.K.-X. # , $ - $ , ; ; ",
"` _  .A ^ _ ) ] s.) G.|.C.5.K.8. .,.l.O.@.0.6.Z.K.K.L.M.m.H.c.M.L.L.A.V.V.`.L.c.Q./.6.q.G.a n h x h m |.P.C.H.G.&XX # - $ # - $ ; + ",
" .H _ V H H ) ] { ` G.u.q.,.^ L ....l.5.d.c.Z.x.l.H.H.H.H.H.L.H.m.L.!.L.M.).<.g.q.C.I.H.*Xd n g x f F I.C.d.q.@.).. % - $ + - # - ; ",
"4.S H P H A ^ ] +.` c.K.C.5.H.4...` c.l.d.7.h.B.d.z.m.c.M.H.H.g.m.m.d.h.J.K. .q.2.t.H.I.$Xf b n v m V C.H.5.] C.2XX # $ # O - # : ; ",
"4.H _ L ,.J ) ] +.4.M.c.K.c.@X4.7. .5.d.s.s.d.m.g.g.H.c.c.b.h.d.g.z.5.k.n.c.6.V.q.V.A.h._.a b v z x G C.5.7.H.C.=X. + ; # $ # , > > ",
"^ H H A H D ~ { { ` T.U.I.w.Z. .6.<.7.n.c.^.b.L.b.b.K.C.c.K.K.H.c.C.$.z.z.d._ q.q.6.G.d.$Xi n v x x G +X|.C.Q.H.<X. $ ; - ; # < > 9 ",
"H H B L ^ S o.5.4.! H.f.q.q.q.8.<. .5.n.c.G.6.V.C.4.6.8.6.7.6.6.7.C.5.C.P.c.8.q.q.q.P.g.|.s v i z g Z |.x.d.K.^.$X. # + # - # ; > > ",
"! L V L J D / ] s.U ]._ 1.y.y.4.` ,.@.n.M.K.c.P.D.q.S.q.0.5.,.6.g.C.B.C.+.d.O.6.V.q.C.g.oXs g z z x V G.d.O.d.d.(.X # + # < ; ; > > ",
"` J H L _ V ~ { +.N OXOX}.G.W.4._ ..o.M.c.L.V.v.u.x.V.6.6.6.q.8.g.q.q.x.v.Z...8.g.8.|.K.*Xi z z b m 8.E./ h.C.5./.X ; ; # ; $ - > > ",
"..H ^ L _ H ! / O./ 4.` / ` ` ` X.<.O.n.l.V.S.S.V.r.x.r.r.w.x.V.g.y.u.Z.b.R.w.G.v.r.l.g.`.g z x x h 4.G.4.x.h.f.'.X ; # # , - $ @ @ ",
"` H =.L =.H ) ' O.] 2.2.2.,.-.-.8.2.O.z.l.u.q.r.q.q.q.e.v.e.t.u.V.F.q.x.Z.l.7.G.R.|.w.g./.f z B z a -.x./ [ h.g.=XX ; # - < - # @ @ ",
"..S _ L _ ! ~ ] { [ _ S.8.=.-.` 4.8.+.k.7.1.,.=._ <.8.3.2.2.0.a.a.v.q.w.Z.0.4.g.g.A.w.C.`.h d n v f _ Z.4.h.h.c.$X. $ + $ , ; + $ $ ",
"^ H ( _ _ ~ ~ ] 5./ 3.=.=.=.L <.w.6.d.M.w.1.,.,.=.1.q.3.2.e.e.0.u.q.e.w.w.e.4.B.V.w.x.c.U.b d k z c ^ Z.6.c.c.I.$X. ; + + , ; - & @ ",
"@...,.,.-.~ O.] 4...-.t.-.K -.` o.8.O.z.6.0.0.0.q.u.0.8.u.7.V.F.Z.e.6.q.v.R.Z.P.G.C.7.x./.h x z z h F x.q.h.h.m.(.O ; + O , # - > > ",
"R S ^ C _ ) ] +.7.C y.q.8.,._ ..o.@.%.f.d.0.q.x.r.u.u.u.q.>.>.q.u.x.7.@.C.}.8.u.u.Z.Z.A.I.x g x x h G w.) +.d.g./.X ; @ # $ $ - $ > ",
"H D ~ J _ ( N Q +.C  .w.<.8.2.<.7.@.%.z.c.V.y.q.Z.V.G.r.0.>.q.S.q.Z.h.g.H.W.u.Z.F.}.A.h.H.m z x B f =.6.q.7.C.H.oXX ; # # $ $ + & > ",
"^ ) D J _ ` I ' ] T _ 6...,. .q.A.w.%.M.l.u.6.4.w.S.g.e.q.q.0.u.6.v.d.b.K.Z.6.C.C. XC.c.P.C v b m g H G...C.}.5.).X < + # - - - > @ ",
"` ) C ^ H ` ' ] [ ] t.<...4.,.4.4...^ #.g.Z.Z.r.F.V.r.e.0.0.a.q.l.r.6.V.F. Xv.H.K.:Xx.g.Y.m j Z m a _ v.}.P.A.d./.X , # + ; , - > > ",
"X.` R J / [ ] ] ` E u.B.D.S.u.5.7.7...7.g.i.e.0.0.y.y.q.8.0.w.q.e.8.,.8.8.C.q.c.K.U...s.Q.m Z Z m t ;.Z.0.l.7.] '.O , # # - , $ @ > ",
" .@.` ! ..^ ] +.[ { u.q.q.q.` 7.g.7.4.7.g.r.2.2.0.0.8.u.F.8.8.y.r.q.q.y.u.V.Z.c.c.Q.+.h.P.x Z x m a -.W.g.h.h.4.(.o 6 + $ - ; ; @ > ",
"_ 4.7._ ..Y ' } ` ' q.P.8.4._ g.Z.w.,.l.z.V.t.0.t.8.w.F.F.,.q.V.r.Z.q.F.u.V.D.K.c.b.C.j.(.v h m h u y.|.C.h.g.5.(.o 7 + + ; $ < % > ",
"..4.r._ O./ E 7.#.E q.q.8.:.;.O.l.7.l.l.5.c.r.C.C.4.d.A.Z.<.q.S.q.G.Z.C.Z.P.c.H.A.b.w.C./.d v F Z a 8.q.C.h.5.W.T.O 9 $ $ < # 7 @ > ",
"6.<.` K D / D _ +./ 2.i.}.F.q.] 5.5.g.7.4.M.c.l.c.g.H.I.C.0.a.u.p.}.h.c.C.K.g.c.A.A.0.C./.i m F Z u D.F.5.d.d.d.#X+ 9 $ 7 ; $ q > & ",
"O.S K V R N m n 5.I F.V.u.a.e.d.+.f.c.7.O.H.c.H.c.d.c.c.K.l.v.l.A.K.h.c.H.m.l.x.6.q.x.g.L.r v Z Z a y.P.N.d.g.Z.#XX & @ ; 6 $ > @ @ ",
"s.) _ ) ..A J _ ] U Q.r.2.3.3.5.f.f.M.c.U.b.l.v.q.w.g.6.@.#.4.6.7.d.7.l.l.*.X.6.w.7.b.f.M.'.t x B f ~ w.^ @.C.c.$XO & ; $ 8 > > @ @ ",
"+./ =.[ ..V H K ~ T g.Z.e.e.3.6.d.s.M.l. ...` ....8.4.,.<.,.8.r.e.w.@.@.l.u.6.C.x.Z.7.c.z.M.!.u v f 8.4./ +.C.x.L.O & ; & ; $ > @ $ ",
"+.[ =.[ .._ ^ K ] U Q.4.a.a.L @.,.6.n.x.r.w.0.8.w.r.0.6.<.,.@.0.@.0.@.7.r.G.7.l.c._.7.%.g.f.g.E.z f 5.+.' g.{ 7.^.X > & > @ > $ ; @ ",
"O.+.=.) ` ^ H H +.U |.l.0.3.>.6.6.k.d.c.d.d.7.s.7.o.5.c.x.` 8.q.e.V.5.g.q.l.d.h.w.d.5.d.d.%.f.g.L.f ( c.g.H.H.C.%XX 6 $ > $ & > > $ ",
"%.5._ ^ ` ) H K 5.I Z.V.e.8.J _ O.` [ 7.4.@...5.%.d.m.n.m.m.d.l.z.l.%.f.f.z.$.+.+.f.4.` ` ..7.` O.5.! Q.9.j.I.h.#XX $ $ ; > $ @ $ ; ",
"%.x.,.) <.G C K { T r.v.S.].,.t.t.;.1.K ,.3.u.F.S.1.P K L ;.y.y.<.q.0.K 8.,.1.t.0.J <.q.g.P.g.C.l.7.#.,XU | H.h./.X > @ $ > @ @ @ $ ",
"+.x.8.` 4.` ,.q.[ ~ c.G.g.G.[.G.P.D.S.4./ q.q.V.{.y.1.3.=.t.y.y._ u.G.q.S.V.}. XG.}.>X5.h.g.C.C.P.K.Q.Q.|.5.Y.K.%Xo 7 ; ; > $ > ; ; ",
"W Y _ D ! d.5.{ F G f.$.d.@.@.#.H.Q.g.{ ' s.7.S.G.G.6.<.<.t.u.t.<.2.}.G.7.g.4.x.x.c.I.4.C.g.x.5.Z.W.v.X.R v.b.C.@X. $ 7 ; 9 w ; ; $ ",
"Q / O.) R ~ ) { C F $.f.K.P.c.7.c.5.7.g.g.H.H.P.Q.D.6.0.u.S.4.3.G.p.[.l.5.g.7.w.Z.4.h.H.5.g.C.h.R.x.G.R.w.g.|.C.$X. $ ; ; ; 8 > ; $ ",
"| T [ ' ] [ ! :.R H f.m.I.c.d.z.H.P.B.g.c.H.c.I.H.h.( e.2.8.u.S.i.{.}.h.B.h.h.j.j.h.G.g.5.s.g.x.#.7.Z.r...c.c.s.@XX ; ; ; ; > > ; $ ",
"O./ ! { ] O.` $._ B s.H.H.H.m.P.P.d.h.h.s.h.g.c.P..XN.e.V.Z.A.K.v.}.}..XH.h.D.C.|.P.b.P.I.I.c.Z.8.w.q.P.N.N.g.g.M.  ; ; ; ; ; & $ ; ",
"{ [ ~ ' ' 5.[ 5.V H 7.5./ E ) ] s.[ T ) `  ./ ) ^ D o.o./ ~ ~ ] T T O.Q I T ' } o.E / l M H H ! ( H ! 6.O.] ) O.c.!   > > ; ; > ; $ ",
"+.' 5./ ] 5.7.+.) J.f.5.d.4.7.4.8.6.4.^ ..4. .H ^ R R S S ! ! ( ' ` ) ` ` -.` @.) / #.R ! J J ,.) ` ! g.5.] 5.s.s.J.N   > ; ; > $ > ",
"s.Y s.R ] ] 6.{ 7._ _ =.L _ ^ ( H H H H ( ^ _ H _  ._ _ _ _ 3.>._ <.,. . ./ ( O.@...` S ^ O.4.4...6.r.6.R ) { ] +.{ f.!   ; ; > $ $ ",
"$.( 5.T ] +.g.] O.M A J S A A H C S H ( H ( H F L L J H L L _ _ _ <.! J J J J ^ ^ ,.<.^ ( ] :.[ ..) / / ^ [ +.+.] @.] b.K   > ; & $ ",
"s.H ,.! @.c.| 5.8.<.^ [ ` ` ^ ^ _ ..@.,.-.:.<._ ! _ H B F ( =.>.^ ^ <.[ E Y T ] 5.g.q._ L ` -.4...,.u.4.4.+.] ! [ s.$.q.y.4.  < > ; ",
"+.J L z ( { ] ) ! ( ....>. .L _ ( _ >.` ` _ ^ H H H K _ _ ^ ^ H J _ ^ C S _ ^ _ ` ..q.` ( [ [ [ 5.d.P.` ~ ~ [ O.{ { ! ` F 4.6.  > > ",
"#._ V ) +.+.4.g.q.#.O...L L F K ( L H H H K _ >.1.,.H A H _ _ =.( ^ ` H ( ^ =.>._ K =.` 4.+.O.[ O.o.+.[ Y ' :.[ [ :.5.g.4.4.7.4.  8 ",
".._ [ s.O.[ ' [ [ T T ' +.O.] ] +.[ ) ~ T [ [ 5.5.[ F J K =.` =._ 2.q.:.[ ` [ O.5.[ 5.[ ) [ [ / ..` ....! [ s.' { ] ] +.E Q T d.5.  ",
"J  ./ ^ ! ! R ~ X.[ [ 4.` ) [ 5.[ ] ~ ! ! / ` O.4.7.[ _ ! ^ :.4.^ @...S R ) ] +.O.o.+./ ~ ] ` ) ~ ! ) ` ) ^ ( ! Y Y Y / ` [ :.5.+.[ ",
"@.] o.../ ^ ..5.x.6./ ..R ! / ..z.5.+.&.z.n.f.f.f.k.f.k.z.%.&.+.f.s.w.$.+.+.+.$.$.$.%.&.%.+.} $.%.$.k.O./ / O./ ^ / @.7.r...X...^ O."
};
