/* XPM */
static char *_19d4dba79834a59e689d9279a620987grXHjBd1UBIYM1Tm[] = {
/* columns rows colors chars-per-pixel */
"66 66 252 2 ",
"   c #000000",
".  c #020B09",
"X  c #06130D",
"o  c #09150B",
"O  c #151A00",
"+  c #000A15",
"@  c #061415",
"#  c #0B1614",
"$  c #0B1915",
"%  c #06161B",
"&  c #09171C",
"*  c #07191D",
"=  c #0B1A1D",
"-  c #071816",
";  c #111E1E",
":  c #291D00",
">  c #282300",
",  c #392A02",
"<  c #071A21",
"1  c #0C1D22",
"2  c #081729",
"3  c #101E22",
"4  c #051326",
"5  c #0D2024",
"6  c #0E222A",
"7  c #122125",
"8  c #132429",
"9  c #192729",
"0  c #192C34",
"q  c #152F39",
"w  c #32382B",
"e  c #26373A",
"r  c #2B3430",
"t  c #132016",
"y  c #463809",
"u  c #374239",
"i  c #524212",
"p  c #434739",
"a  c #594F35",
"s  c #283C44",
"d  c #323E48",
"f  c #1E3241",
"g  c #2A4244",
"h  c #2E4649",
"j  c #344444",
"k  c #3B4945",
"l  c #344B4C",
"z  c #3B4C4C",
"x  c #354748",
"c  c #3C524E",
"v  c #36514F",
"b  c #354C51",
"n  c #394B53",
"m  c #355152",
"M  c #3C5353",
"N  c #3D5559",
"B  c #3D5955",
"V  c #2B4B56",
"C  c #3C5A60",
"Z  c #434E4C",
"A  c #45524E",
"S  c #4A544D",
"D  c #4A584C",
"F  c #58584A",
"G  c #445453",
"H  c #4B5553",
"J  c #455A56",
"K  c #4D5A55",
"L  c #425659",
"P  c #455C5A",
"I  c #4B5C5B",
"U  c #4A5659",
"Y  c #535B55",
"T  c #545D5A",
"R  c #5B5F5A",
"E  c #575A54",
"W  c #484E55",
"Q  c #615F53",
"!  c #645D49",
"~  c #4D635C",
"^  c #49625B",
"/  c #54635C",
"(  c #5C635C",
")  c #5C6A5D",
"_  c #576558",
"`  c #5A654F",
"'  c #75674C",
"]  c #64655B",
"[  c #646C5B",
"{  c #6B6D5C",
"}  c #686855",
"|  c #766E5C",
" . c #6D725D",
".. c #677158",
"X. c #73735C",
"o. c #7C735D",
"O. c #7C7A5D",
"+. c #76795B",
"@. c #64684E",
"#. c #4C5C64",
"$. c #4D6462",
"%. c #4D6766",
"&. c #546462",
"*. c #5C6562",
"=. c #546A64",
"-. c #5C6B64",
";. c #556C69",
":. c #5C6C69",
">. c #57676A",
",. c #5D7165",
"<. c #5D726C",
"1. c #577067",
"2. c #5C7471",
"3. c #646B63",
"4. c #6B6D64",
"5. c #646D6A",
"6. c #666867",
"7. c #736D62",
"8. c #756D67",
"9. c #647265",
"0. c #6C7464",
"q. c #64726B",
"w. c #6C736A",
"e. c #6C7A6C",
"r. c #6A7967",
"t. c #737364",
"y. c #7C7464",
"u. c #747964",
"i. c #7D7C64",
"p. c #73746B",
"a. c #7B756B",
"s. c #747B6C",
"d. c #7C7C6B",
"f. c #6D7B72",
"g. c #677774",
"h. c #747B73",
"j. c #7C7C73",
"k. c #777676",
"l. c #686A72",
"z. c #86785B",
"x. c #957C5A",
"c. c #86704C",
"v. c #837C64",
"b. c #8B7C64",
"n. c #837C6B",
"m. c #8A7D6B",
"M. c #817567",
"N. c #927E6C",
"B. c #987F63",
"V. c #847D73",
"C. c #8B7E72",
"Z. c #837A78",
"A. c #907B70",
"S. c #7C826C",
"D. c #7A8269",
"F. c #758274",
"G. c #7D8373",
"H. c #7D847A",
"J. c #79857E",
"K. c #6F8071",
"L. c #98865C",
"P. c #89845A",
"I. c #A7875C",
"U. c #B38D5D",
"Y. c #858365",
"T. c #8B8465",
"R. c #84836C",
"E. c #8A836C",
"W. c #8C8A6C",
"Q. c #898968",
"!. c #948364",
"~. c #9C8363",
"^. c #93836C",
"/. c #9B846B",
"(. c #938A6C",
"). c #9A8D6C",
"_. c #988A64",
"`. c #9C926D",
"'. c #99986A",
"]. c #848473",
"[. c #8B8472",
"{. c #8C8A74",
"}. c #85847A",
"|. c #8B867A",
" X c #868A7C",
".X c #8C8B7C",
"XX c #878A74",
"oX c #928573",
"OX c #9A8673",
"+X c #938B73",
"@X c #9A8B73",
"#X c #948B7C",
"$X c #9C8C7B",
"%X c #938579",
"&X c #8C907C",
"*X c #9A9174",
"=X c #94937B",
"-X c #98937A",
";X c #A48C6B",
":X c #AA8C6B",
">X c #A48866",
",X c #B38C6B",
"<X c #A7966A",
"1X c #B4956A",
"2X c #A18B74",
"3X c #AA8E72",
"4X c #A28D7C",
"5X c #AA8D7F",
"6X c #A4927B",
"7X c #AA947C",
"8X c #AC9C7D",
"9X c #A69675",
"0X c #B29374",
"qX c #B69879",
"wX c #B8A377",
"eX c #B2A273",
"rX c #C59978",
"tX c #C89B6D",
"yX c #C8A777",
"uX c #D7A878",
"iX c #D6B47C",
"pX c #D0A56A",
"aX c #E6AA77",
"sX c #E7B67C",
"dX c #F2B27A",
"fX c #EBC37C",
"gX c #7F8A85",
"hX c #8A8A83",
"jX c #948D82",
"kX c #8A9283",
"lX c #989584",
"zX c #AB9C84",
"xX c #A59786",
"cX c #B39B83",
"vX c #B79C86",
"bX c #ABA188",
"nX c #BAA487",
"mX c #B4A695",
"MX c #AFA297",
"NX c #C7A687",
"BX c #D6AB87",
"VX c #D7B389",
"CX c #C5AC92",
"ZX c #D1B597",
"AX c #E7B988",
"SX c #ECB98D",
"DX c #D0AC94",
"FX c #FDC789",
"GX c #FCC798",
"HX c #F0CB95",
"JX c #F7CAA1",
"KX c #FFEDB2",
/* pixels */
"t . o $ $ $ # $ - X X - - @ X X $ @ X - @ @ X . X $ - - @ X X . X @ @ . X @ X @ $ $ ; $ $ $ # # o o o # # o $ $ $ $ $ & - @ - - @ X ",
"_ 8 $ ; 3 = & 5 7 5 5 5 = = - - 1 * - = * = 1 < < * & < 1 < 1 1 5 = 1 = < 5 5 5 1 = 1 & = ; ; 1 $ 3 & 0 8 8 3 ; 3 ; = 8 5 5 5 = 1 & ",
"H ( 8 @ 5 5 < 1 6 8 5 = $ & = 5 5 1 1 2 5 * * - = < < 1 1 1 1 1 5 1 1 < < 1 = = < 1 8 3 7 7 = = 7 5 = 8 1 5 1 6 1 < < 7 8 8 ; = = & ",
"E G 3.0 + 1 = = 6 1 = = = = * & 1 5 1 1 1 < = * * * = * < = < * - * % - * - - * % % 1 $ ; = 3 7 = = = 5 1 1 1 3 3 1 & 1 5 = < = 1 1 ",
"H H Z 4.0 . = & 1 5 5 1 = 1 1 5 3 1 < 1 1 1 = 1 < 1 1 * 1 = = = = = = = < < = 1 1 1 7 ; ; ; 3 ; 1 $ 1 7 7 5 3 5 5 = & & 5 5 ; 1 3 $ ",
"E H U S 4.e   = 5 $ = 1 5 1 < < 1 = 1 & < - - & - = - & 1 5 1 < 5 7 2 7 7 1 7 3 3 7 0 = 3 7 3 7 1 7 8 < = < = < - = $ 7 = 1 ; 5 & 1 ",
"R Z *.Z S 4.e   = ; ; ; 3 $ # 1 1 1 $ 1 1 = = ; = & = = = 1 = = & 7 3 = 3 = 1 7 3 8 9 8 7 7 3 1 = 3 8 < = 1 = 1 = * - < 1 < = 1 = = ",
"T z T Z S H h.d . 7 3 3 3 ; $ 3 3 ; 3 1 1 3 1 7 7 5 ; 7 1 5 3 ; $ & 3 = 3 = = $ & # 1 3 7 7 8 7 7 3 3 8 < < & < < 1 - = - - = 5 = & ",
"T N ^ G *.q.( T l   8 1 6 7 8 8 7 8 8 7 7 9 9 8 8 7 8 9 8 9 9 9 8 8 8 ; 3 3 3 3 = 8 7 7 3 1 1 3 3 1 1 8 7 8 7 1 = 7 7 - 6 5 8 5 1 3 ",
"D M m s U T U k =.h                                                                                               = = = 5 5 1 < ; = ",
"/ M b g #.T H k l G gXJ.J.h.F.d.lXH.E.4XqXvX8X6XqXNXNXNXnX8XnX8XBXnXmX0X0XvXqX0XvX0XqXzX5X4XOXxX^.$X6XhXf.F.F.gXJ.  1 1 & 5 1 < = 3 ",
"J P z m N Y Y z c M :.:.>.g.q.3.V.s.V.a.%X$XOX6X4X@X!.vXnX9X*XT.@X+X{.3XB.N.OXM.OXm.b.oXC.M.a.n.V.a.n.:.-._ / -.q.  5 1 & 5 < 5 1 ; ",
"B J l x N T A A l z -.-.-.) :.[ hXs.n.%XE.OXN.OXOX/./.qX3X3X2X^.7XzX-X9X6X+Xv.m.M.M.b.nXxX| { M.[.y.[.5.g.) h.q.g.  1 & $ & * 1 = 3 ",
"M N M g L G A Z l x <.<.-._ h.u.].d.n.m.oX6XN.OX^.^./.^./.b.3X0X0X0X>XwXY.+XR.-X].*X8X~.OXo.y.m.m.#XxX( _ w.g.*.kX  1 & - = * 1 1 = ",
"l M c h L J H H M x e.h.e.H.r.A E K ] ] ] H 2X;X^.;X2X/.;X3X3XqX3X>XvXVXNXnX8XnXvXnXHXY.m.#X#X^.#X$XbXmX}.p.j.|.MX  7 < & = - < $ & ",
"v z M h L J A G c L @.0.s.h.e.W           O 4Xb.^.3X0X0X0XqX:X:X:Xx.qX1X1X~.~.~.x.B.7X) w             %XM.p.].}.zX  1 = & < @ * 1 % ",
"M v M g M U T U Y G ] a.8.a.M.W k.xX6XzXbXO C.^.;X;X0X:X0X3X~.,X0X,XBX,Xx.B.B.,X;XL.nX( p z.bX6X-XJX  [.M.V.V.[.zX  1 1 * 6 - < 6 = ",
"M B B g B I H z #.z a.4.Q ] 7.n <.h.q.s.R.O /.!.^.>X:X0X0X>X>X>X,X>X,XB.B.B.,X,X0XqX).` p } s.e.3.-X  xXC.%X#X%XvX  3 5 1 = = 1 8 1 ",
"M P B g M L k A G j |.Q Q { 7.Z &..Xd.XX%XO N.B.~.>X,X,X0X>XB.B.>X,X,XI.x.U.tXB.rXB.9Xt.p X.lXs.s.mX  @XM.n.y.[.vX  2 1 1 & * * < = ",
"c P N x c z G K R h n.t.t.y.| x ~ S. XXX].O N./.~.>X1X1X>X>X>X,X>XI.rXx.c.>Xx.U.U.x.!.@.p } {.{.&XbX  =X{ 7.8.y.nX  3 2 1 < = < 1 1 ",
"M L n b M M G Y T s 4X%XM.R.E.s ' ' ' c.x.> m.L.).L.L.L.>X~.,XuXtXU.uXaXU.U.U.I.x.x.!...p ' | b.z.;X  i.|.} p.M.vX  1 1 < 1 * 1 < 3 ",
"M G N b M L K H *.l OX4XE.m.+XX.t.7.{ [ t.d.).)._.L.qX1XsXtX!         .   9 pXuX1XI.L...p F a F ! @.} xX[.y.m.#XvX  1 & = * * < 1 & ",
"M M N l G M G H T l jX#Xd.t.E.[.@X[.m.i.Y.).(.(.P.P.tXAXr   + # ; 7 9 ; & &   9 AXuX>Xo.M.u. .{ 4.( _ zXoXoX{.G.zX  1 < * % * * < & ",
"N M m g c l G E T c &XG.j.0.{ oX$Xo.y.@.{ X.' O.D.L.'   & ; %             @ 7 &   c.BXz.z.i.i.i.R.u.u.8XOXy.t.u.xX  = < % % < % $ 4 ",
"J x M V c l B S T N oX[.[.m.4X).4XxXA.v.(.6X7XT.<XD . 0 0   $ uXdXFXGXaXx.r   3 9   w 1Xz.o.X.i.E.R.{ OX(.y.| #XZX  7 * - % & % & 1 ",
"P c N b J v A K E L 3X/.@X(.cX^.oXOX^.b.).8X_.`...4 e +   fXsXyXpXaXdXpXpXFXGX  + =   c.L.} Y.W.E.oXi.2Xm.m.$XN.NX  1 & < * & < 3 3 ",
"c b l l c l S T T n qX3X-XR.=XY.W.{.+X).*X).Y.L.  e e 3 sX<X<XtX1X,X9X0XdXdXpXFX;   1   ;X@.i.(.N.7Xo.CX7XOX4X2XCX  3 < * * * 2 3 3 ",
"c l g m c z K U T x jXn.R.d.].XXW.+X+XT.*X6X_.x u 0 2 VX1XpXL.hXvXxXV.V.k.<XpXU.FX  & * 5 wXY.W.v.v.` nXOXv.4X7XNX  1 % * = & 5 3 1 ",
"c N x m M x S Y *.s kX3.F.hX.XE.E.E.W.O.!._.<Xq Z d P.eXpX(.4.$XqXcXnXm.+Xk.k.fXyXeX  3   ).Q.Y.+.@...9Xv.z.v.M.qX  = & * < < < & 1 ",
"B v M m M h G T Y s bXxXlX*X-X8XnX9X8XnX9X1X} e e q iXwXtXk.8XNXBXBXJX7XnX$Xj.yXiXVX. @   t.HXVXCXnXCX*XO.OX^.v.0X  7 4 < 1 & = 3 3 ",
"G M M m B l A H Y M r.[ .. .X.X.+.v.z.z.P.<Xj h x v.iXfXH.zXzXqXGXGXGXGXAXvX#X>.fXsXAX  &   yXL._.*XnX'.O.N.^.N.vX  3 % & 1 < & & & ",
"B z N N P l G H Y G e.f.s.a.j.a.t.i.+.M.v.).0 x n ;XeXiX6.CXZXBXBXFXSXSXSX5X%Xk.<XL.wX  3   eX'.(.`.8XY.| M.N.b.NX  3 % < 1 < % # & ",
"A l P m M z Z Y T z 0.H.e.[ p.{ [  .X.i.E.).q z s '.<X'.Z.cXBXAXSXGXFXGXZXxXzX6.!._.AX  ;   rXB.b._.8X+Xv.oXN.OXqX  7 & * 1 1 % & & ",
"B v N N L G A H &.G q.3.9.3.0.r.( @. .i.v.T.L R P &X'.<Xk.zXNXNXAXKXGXJXAXCXNXk.(.).AX  7   rX2XT.T.`.+Xm.OX(.5XNX  2 @ * 1 < * & & ",
"J ^ L J L W U E J G r.h.3.[ r.d.t. .i.v.i.).n I v W.*X<XhXMXcXBXGXGXGXGXCXoX%Xk.eX<XqX  ;   uX/.`.T.Y.W.T.^.!.OX7X  3 @ * = * < 3 3 ",
"l c M l M G H / T g H.s.s.s.s.u.X.d.R.E.E.T./ J M 9.qXyX8.|.xXNXSXvXZXVXnX2X4XZ.HXyX2X* 3 . rX>X@XOX/.D. .y.m.m.7X  7 % - * * * = 1 ",
"x c Z c L G d D K j 9.s. .s.s.u.D.XXW.-XY.W.( h I V NX8X'.3.V.#XvXvX$XA.2XvXl.NXyXwX% 0 7 t.VXvX9X@XzX+.{.E.$X+XcX  2 % * % * % & 1 ",
"c J z v M G p H J Z 9. .r.0.u.S.R.i.Y.+XR.v.).s P $.{.wX).).l.C.A.A.jXxXM.xX;XSXZXi.6 q 4 _.!.O.O.Y.W.=XX.-X$Xy.7X  7 % - < < % ; & ",
"B D u m M U S H U A F.s.e.u.u.XXW.&XQ.Y.+X).6XU I / G <X).`.wX}.8.l.k.Z.6.1XaXAXVX2 B e 0 ;X{.+XR.].-XD.xX@X+Xy.6X  7 % & < 1 < 3 & ",
"N ^ z B J U S E G A H.a.#X}.XXR.Y.=XY.Y.+X9X*X_.d *.5.M 9X9X<XwXeX3XuXtXpXyXAXiXe u g 2 0X(.*X*X+X#XMXW.Y.E.t.{ cX  3 * & 1 < & = 1 ",
"B U G c P A D T U H j.j.d.u.t.d.D.Q.=X(.*X@XT.T.O.U 4.R C V.eXeX<XeXwXU.yXiXv.f S e 2 M.v.`.@X+X+XR.bX{.C.N.n.t.5X  8 < & 1 1 = $ 1 ",
"N / &.B J z S T G A F.}.p.r.0...+.Y.=X+XW.(.+XY.(.[ z R 4.C C ,.T.9X'...d.x #.A j q v.;Xm.W.Y.+X+XW.ZX+X#XN.M.d.4X  3 - % < = 1 # 1 ",
"^ / ;.N I D S -.Y A e.e.s.4.3.3.r. .u.$Xo.z.XX+.O.(.Y.W #.m %.$.N J m B N H _ l 3 P.<X+.z.z.b.b.!.E.NXp.[.b.a..X4X  9 & 1 1 & 3 = = ",
"I P N l c z j B T A e.H.kXkXG.d.F.D.G.Q.}.E.W.Q.W.+.R._.T b m =.] [ $.m g #.n &.BXnXnX*Xb.b.m.oX[.oXZXp.d.v.M.M.5X  8 & 1 < = 8 & = ",
"J l b l c j x h Q j gXe.r.r.e.e.( 5.q.) ] [ S.i.t.X.i.R.*X`.` 5.-.&.V l l } L.P.W.T.NX(.` Q ] Q ] } 5X].d.y.d.d.xX  3 $ 3 ; & 3 & & ",
"( G P W P j B B H x jXf.<.<.<.N , , , y i , T t.t.i.O.Y.Y.P.T.P.T.P._.z.o.o.X.i.u.Y.*X .u i i y y a   S.` { }.a.lX  3 = 1 3 1 1 & % ",
"T G P L J x z M A x d.e.<.q.1.G V lXkX|.CX> / s.S.u.R.+.D.T.Y.Y.T.Y.+.a.t.i.u.].u.i.[.d.w S..X XkXxX  y.( { d.a.m.  3 3 1 & = 3 & # ",
"Y U P U P M B m Y l .Xr.2.2.^ G m s.w.3.kX> Y s.G.d.D...i.Y.R.XXR.i.XX+.y.[.[.n.n.i.E.u.u 0.F.0.q.].  X.E 8.] 4.%X  3 ; ; & 3 & 3 % ",
"E T N G J M c M T x hXq.-.%.^ G n kXw.h.lX> / s.XXjX0.s.n.].[.[.O.+X-Xi.S.E.S.XXu.D.G.}.u s. Xw.H..X  V.8.k.Z.V.xX  3 1 3 & & 3 3 % ",
"( / N G J L c n R x F.w.q.%.A G l u.G.G.kX: / r.{.kX[ s.i.].M.n.i.6X{.d.i.W.XX&XG.s.0.|.u [ d.G.s.S.  lXQ 8.Z.7.#X  1 1 1 ; & & < & ",
"( q.#.J P z b U E Z e.e.g.k.:.M U 3.5.5.J.w ( &X}.u.] 9.t.V.|.|.n.-XR.t.R.R.XXoXG...i.y.u / &.*.5.hX  MXH | Z.p.|.  7 - * 1 # & $ 1 ",
"H &.J B ~ I #.&.G n h.h.g.f.h.q.*.&.T E R l.[ ].&X].r.0.0.].{.]. .=X#XXX+X{.-XxX#XxXMXM.3.[ ] R -.w.j.G.w.4.}.h.jX  3 5 < 8 3 1 = 1 ",
"k G G z c / U T l l 4.] 0.-.[ [ p.j.3.E F 8.d.XX|..X0.r.r.].F.G.r.K.zXXXE.S.i.R.R.E.oX .V.t.t.} e.s.q.) / e.w.k.jX  = 7 1 8 3 3 1 & ",
"S G I G A A A T z n ] t.j.j.r.0.p.] 4.4.p.V.[.%X#X}.r.e.H.H.w.s.&X&X-XE.v.m.i.n.].i.[.V.t.t.a.k.h.w.F.K.:.r.hXw.hX  5 5 < 1 3 1 1 & ",
"E S U H K H A &.c l 4.k.s.8.4.p.p.k.p.8.a.M.n.%XoXV.( F.e.e.H.hXG.lXlXC.C.m.C.A.C.V.C.a.t.t.p.a.9.9.e.e._ s.4.3.|.  2 = 1 1 3 3 = & ",
"K G A T H T U ( M g 3.l.k.k.p.Z.Z.4.4.p.7.a.p.].+XjXp.e.d.G.E.oXXX=XlX$Xm.M.[.m.#X[.R.V.Z.V.p.e.( :.:.k.5.l.5.6.p.  3 = 1 1 1 1 1 = ",
"E W G H H R T ( e -.s.w.( / -.) g.*.( ~ =.=.~ ~ ^ A ) _ / I I ~ ~ Y 5.K H T 3.3._ _ _ z c B P ^ ~ I ^ f.3.( ) 5.}.&.  3 2 1 1 ; = & ",
"T H *.H E #.&.U q.[.h.3.q.q.g.q.q.q.:.&.:.q.=.~ ~ ~ _ ~ ~ / &.=.( ( *.=.*.;.=.5.-.) e.~ / ~ ;.-.=.>.&.h.3.3.w.w.0.}.T   7 1 1 1 ; = ",
"( Z ] z S U T ( :.^ $.%.^ I ^ I G J P I $.~ ^ P %.%.~ %.$.$.;.;.$.<.1.=.1.~ / ,.,.,./ G / -.5.5.,.9.K.,.Y 3.[ 4.4.3.u.]   < = 1 = = ",
"T G T A / / 3.s.-.G P ~ P P ^ ^ P $.~ $.#.$.#.P %.~ ^ ^ %.$.%.2.;.g.~ ~ ~ ~ ~ ~ =.2.g.$.=.:.q.:.-.=.:./ / -.q.3.3.4.3.H.-.  8 1 = 1 ",
"K N N l J 8.8.5.2.;.&.3.-.=./ / =.,.<.q.:.<.<./ =.%.I N P $.;.;./ =.q.3.) _ ( 9.w.F.f.&.&.-.:.q.:.<.gXq.w.4.( ( 6.8.4.q.g.2.  5 1 = ",
"_ N B q *.w.*.-.~ / q.1.;.%.$.%.$.%.=.;.=.=.%.$.~ ^ / %.=./ ~ / ~ =.~ G I ~ / =.;.-.K.;.=.3.5.3.s.k..XI Y ( -.3.3.3.*.=.P r.g.  3 1 ",
"/ L g 3.w.3.w.h.h.e.:.) =.$.^ $.>.$.~ I I ~ ;.1.g.<.P ^ $.>.>.;.~ <.:.$.&.:.:.2.=.;.q.:.q.w.9.5.9.[ 0.5.T 6.w.3.5.4.4.H.w.q.e.q.  7 ",
"J m 3.4.3.( ( ( ( T R { 0.4.) 3.4.3.] R ( 3.5.w.w.q.P $.$.;.;.;.1.g.h.q.3.3.-.3.5.5.w.*.*.] 3.-.=.;.;.-.T :.4.( 3.*.( 3.R Q ( d.d.  ",
"v &.-.~ K I _ / ,.-.:.5./ / :.w.3.( ( / / 9.:.q.g.h.q.=.&.=.q.5.-.9.=.P / [ 9.0.w.3.r.) *.3.*.*.( *.3.*.>.&./ / I ~ / -.-.-.5.-.-.h.",
"e.[ 9.9.9.-.r.K.F.r.) :.) -.,.[  Xe.d.[.[.+XE.[.n.R.n.OX[.R.R.i.[.].G.R.i.d.p.d.a.d.R.m.n.t.t.d.n.n.[.9.-.) 9.9.) 9.r.F.F.,.) ,./ 9."
};
