/* XPM */
static char *_69ee8fd6f134f75cda134b4a20c15512dHDonXW7IlUd2o4[] = {
/* columns rows colors chars-per-pixel */
"66 66 227 2 ",
"   c #000000",
".  c #010B05",
"X  c #020C0B",
"o  c #00030D",
"O  c #06130D",
"+  c #09150B",
"@  c #020D16",
"#  c #061515",
"$  c #0B1614",
"%  c #0B1915",
"&  c #06161B",
"*  c #09171C",
"=  c #07191D",
"-  c #0B1A1D",
";  c #071816",
":  c #101E1E",
">  c #132016",
",  c #071A20",
"<  c #0D1F25",
"1  c #0C1C22",
"2  c #0A1824",
"3  c #101E22",
"4  c #101E23",
"5  c #0D2023",
"6  c #0D2025",
"7  c #0D2026",
"8  c #0E2229",
"9  c #112125",
"0  c #122125",
"q  c #13242A",
"w  c #1A2A2E",
"e  c #152A2B",
"r  c #152A32",
"t  c #1B2C32",
"y  c #142430",
"u  c #1D3339",
"i  c #22343A",
"p  c #2C3B3B",
"a  c #23363A",
"s  c #323E3F",
"d  c #232E2F",
"f  c #38433D",
"g  c #162D5E",
"h  c #1F355B",
"j  c #2A3D41",
"k  c #293B52",
"l  c #1D386B",
"z  c #1B3465",
"x  c #112A67",
"c  c #233A66",
"v  c #243F74",
"b  c #2B4245",
"n  c #2D4847",
"m  c #2F4349",
"M  c #334443",
"N  c #3B4645",
"B  c #364946",
"V  c #3C4945",
"C  c #33474B",
"Z  c #344B4C",
"A  c #3B4C4C",
"S  c #3C4649",
"D  c #36514F",
"F  c #3C514E",
"G  c #354C51",
"H  c #3B4E52",
"J  c #355253",
"K  c #3C5353",
"L  c #3E5853",
"P  c #3D545A",
"I  c #3E5A5A",
"U  c #2C4365",
"Y  c #2B426A",
"T  c #27436D",
"R  c #31466B",
"E  c #344B6C",
"W  c #304566",
"Q  c #3B5463",
"!  c #2B4876",
"~  c #344C72",
"^  c #394D72",
"/  c #3C5275",
"(  c #3C547A",
")  c #375378",
"_  c #424D4C",
"`  c #474949",
"'  c #44524E",
"]  c #4B544D",
"[  c #4B5A4E",
"{  c #53574F",
"}  c #435453",
"|  c #4C5553",
" . c #455A55",
".. c #4D5B55",
"X. c #43565A",
"o. c #4A565A",
"O. c #455B5B",
"+. c #4B5C5B",
"@. c #515754",
"#. c #535B55",
"$. c #5C5E55",
"%. c #545D5B",
"&. c #5A5F5B",
"*. c #635C5D",
"=. c #4D635C",
"-. c #4B635B",
";. c #546156",
":. c #54635D",
">. c #5C635D",
",. c #54695D",
"<. c #5C6A5E",
"1. c #5B6256",
"2. c #62665C",
"3. c #626C5E",
"4. c #636257",
"5. c #455C62",
"6. c #4A5E62",
"7. c #4A5B68",
"8. c #535F62",
"9. c #465B7B",
"0. c #445879",
"q. c #466264",
"w. c #4D6363",
"e. c #4D6965",
"r. c #4E6569",
"t. c #4E6A6A",
"y. c #546563",
"u. c #5C6562",
"i. c #556A65",
"p. c #5C6B64",
"a. c #536669",
"s. c #5D656A",
"d. c #556A6B",
"f. c #5B6C6B",
"g. c #5D7165",
"h. c #57706C",
"j. c #5C716C",
"k. c #5A7469",
"l. c #576D72",
"z. c #5B6D71",
"x. c #5E6F78",
"c. c #557072",
"v. c #5D7272",
"b. c #5F7379",
"n. c #626663",
"m. c #646B64",
"M. c #6B6D65",
"N. c #646C6A",
"B. c #6A6E6B",
"V. c #66676A",
"C. c #716F6D",
"Z. c #736E65",
"A. c #647365",
"S. c #6D7166",
"D. c #64726C",
"F. c #6C726C",
"G. c #6B7A6B",
"H. c #63796B",
"J. c #727464",
"K. c #72746D",
"L. c #73786E",
"P. c #7B7B6C",
"I. c #767A64",
"U. c #656E71",
"Y. c #6A6F70",
"T. c #637473",
"R. c #6D7472",
"E. c #657974",
"W. c #6D7B74",
"Q. c #64747A",
"!. c #6E7479",
"~. c #667B7B",
"^. c #6C7C7B",
"/. c #737572",
"(. c #747A74",
"). c #7C7C74",
"_. c #747C7B",
"`. c #7B7D7B",
"'. c #847E6B",
"]. c #827D73",
"[. c #837E7A",
"{. c #6B817A",
"}. c #758275",
"|. c #75827D",
" X c #7D837B",
".X c #7C8979",
"XX c #84826C",
"oX c #89826E",
"OX c #838375",
"+X c #8A8472",
"@X c #84847C",
"#X c #8B837C",
"$X c #828A7E",
"%X c #8D8B7F",
"&X c #918679",
"*X c #93927E",
"=X c #3A5783",
"-X c #445D84",
";X c #4B6282",
":X c #486189",
">X c #576B8C",
",X c #506586",
"<X c #7F7E82",
"1X c #657CA0",
"2X c #758582",
"3X c #7C8583",
"4X c #7D8B84",
"5X c #7C8B8A",
"6X c #76888A",
"7X c #6E8285",
"8X c #828B83",
"9X c #8B8A81",
"0X c #858B89",
"qX c #8C8E8B",
"wX c #888583",
"eX c #928D84",
"rX c #998E87",
"tX c #899389",
"yX c #959184",
"uX c #9A928A",
"iX c #96958B",
"pX c #899291",
"aX c #959A98",
"sX c #A29893",
"dX c #A4A39B",
"fX c #B1AA9D",
"gX c #AFAEA0",
/* pixels */
"> . % + % % $ % ; O # ; ; # O O ; # O # # # O . O - ; ; # O O X O # # X O # # O % % > * % $ # % $ + + + % + % % % % % * ; # ; # ; + ",
";.e % 3 1 1 - 5 9 < 5 1 - - & ; 5 = = - = - 1 1 = = - = - , , < 5 - 1 , = 5 6 5 , * < - * : : 3 % : - r 0 q 3 : 3 : - q 6 5 6 - 1 * ",
"@.>.q @ < 1 , 1 q q 5 - % * - 5 6 - 1 < 5 , = & = 1 , 1 < < < < 5 5 - 1 - 1 - 1 - < q 4 0 4 - - 1 0 3 q < 1 < 6 1 1 , 9 e q 5 * * * ",
"#.' n.i @ 4 % 1 8 1 - - - - = * 1 < < 2 1 = - = = , = & = = = - = & & ; & & = ; & & < % : : 0 3 3 - - < 1 1 < 3 4 1 * 1 5 : - - 1 - ",
"| ] _ m.d X - * 1 5 5 1 - 1 1 5 < < 1 2 < 1 , - 1 1 - = - 1 - - , - - - 1 1 = < < 1 4 : : 3 3 : 1 * 1 9 9 5 6 6 5 - * - 5 5 5 5 - - ",
"#.| +.' M.a   3 5 - - 3 5 < , , - - - * = * ; % ; = = * 1 5 1 , < < < 0 6 1 9 5 q 4 w 1 : 0 3 9 3 3 q , - 1 - 1 * * ; 3 - - - 5 : 2 ",
"&.` u.' ] S.a   : - 3 : : % $ 1 4 1 % 1 - 1 - 0 - * - 5 1 1 - - * 0 0 - : - 1 9 4 q w q 0 q 3 1 * 1 0 1 = , 1 1 * - ; 1 - , - 1 - - ",
"%.A %.` ] } (.j . 0 3 : 3 * : 3 4 : 3 1 1 3 3 0 0 5 : : - 0 0 - * * : - 3 : * * % $ - 3 0 0 0 0 0 0 0 9 , , * , 1 - ; - = - - 1 - * ",
"%.X.+.} u.D.y.$.Z   8 < 9 9 9 e 9 q 9 9 q 0 q 0 0 0 0 q 0 q e q 0 q 9 1 1 1 1 1 - 6 9 8 < 1 1 < 1 1 < q 0 9 9 4 1 9 5 ; 8 9 8 6 - 0 ",
"[ J J j X.%.@.V i.n                                                                                               - - 1 6 6 < - 3 - ",
":.K G b 6.%.| V Z } 2X_.^.E.E.F.9XW.K.#X%XuX@XOX%XiXeXuXyX.X8X.XuX8XtXOX).#XOX].%X].@X#X@X[.).wXP.OX&X2XT.(.W.|.|.  1 5 - 5 , 1 1 : ",
" .X.F G P #.+.V F } f.f.y.v.d.u._.f.F.m.).).(.`.).K.S.wXqX(.(.m./.F.E./.B.Z./.V./.N.M.(.F.V.V.B./.V.F.a.w.-.w.i.D.  6 - * 1 , < : 3 ",
"L X.A n L %.' ' D A y.i.i.=.y.y.<Xf.D.(././.M.K.K.K.F.`.(.(.K.B.`._.{.}.(.D.s.s.V.u.3.9XwX&.%.N./.V.(.a.v.=.~.f.D.  1 * ; * = 1 : - ",
"L K J n P } ' } Z N d.d.y...T.p.R.D.D.B.F.[.F.R.B.N.S.N.M.n.K.(.(.(.S.}.i.v.f.Q.f.W..XJ./.>.n.N.F.(.qX....p.j.y.5X  < - ; - = 1 - - ",
"D A K C X...' | F A H.T.D.~.i.Z K H o.o.o.| L.K.F.K.K.N.B.F.K.(.K.m.`.iX$X8X_.8X<X4XdXp.N.R.R.R.(.(.qXaX(.N./.|.aX  6 , * - & , - * ",
"D A J m P ..} } G o.;.m.D.H.f.|              Xn.n./.(.K./.(.B.B.B.&./.J.L.3.>.2.>.n.}. .q             /.N.V.(.).yX  1 - * , # * 1 & ",
"P F K b J +.%.o.#.o.#.B.V.V.V.o.W.|._..X0X  K.m.B.B.(.D.F.B.u.B.F.B.8XB.&.n.>.B.F.>.4XP i %.8X_.|.fX  R.V././.(.yX  < - & < = , 8 - ",
"J L L j P +.| A 6.' Y.&.| #.&.K i.l.r.a.T.  (.n.m.2.B.S.R.V.u.n.n.u.M.&.>.>.n.V.K.W.m.K t K d.r.6.|.   XY.`.`.`.yX  1 < < - - 1 9 1 ",
"K O.L b K X.V ' } V `.@.#.%.8._ =.^.d.E.W.  K.u.u.N.N.B.N.u.8.%.n.u.N.>.@.u.n.Z.C.n.R.5.t +.2Xa.l.tX  R.n.B.V.(.rX  3 , 1 = ; = , - ",
"F +.K Z H A ' ..%.C F.u.>.f.%._ +.j.~.T.f.  K.u.u.u.D.N.>.y.u.n.u.%./...` u.1.2.4.#.y.H t K T.T.~.8X  {.+.>.2.m.sX  < 2 1 1 = 2 1 1 ",
"K X.P G } J | ..&.b [.`.m.F.N.N _ N _ _ >.  f.%.u.u.;.#.u.%.:.R.p.%.R./.%.#.2.1.$...:.P t S o.8.#.F.  p.R.+.n.V.rX  1 , , 1 = 2 1 < ",
"H } J G K X...@.>.F ).[.F.D.G.+.+.6.} I 5.y.p.f.i.+.N.p._.s.j o       X   4 D.F.p.p.,.F u p j j Z A H 2XT.u.B.|.rX  < = = , = , , * ",
"} K X.C L J } | %.A |.|.T.:.D.T.!.N.s.y.y.f.s.y.-.} N._.<   # & - 1 3 - * *   2 _.!.i.} w.5.O.X.5.P } 3XR./.^.D.tX  1 2 = = - = , - ",
"X.J J b F A } @.%.} _.T.f.y. .T.!.+.+.Z } X.A I q. .M o - - &           . # 1 *   S _.X.X.+.5.6.i.6.w._.B.u.:.p.8X  , = & & = & * , ",
" .Z G Z F Z } ..#. ././.R.m._.F.!.<X8.r.a.v.Q.5.d.a @ r r   & R.`.9XiX/.@.9   1 4   < 2.o.X.} 6.d.d.X.R.R.:.&._.dX  1 = & & = & % 4 ",
"O.F K J I D ' ..#. .].K.(.F.$XN.U.U.s.6.f.Q.y.y.G 6 i @ o (.}.D.N.K.(.B.R.eXiX  # =   H +.Z w.d.y.f.y.R.n.N._.B.rX  1 = - = = 1 2 4 ",
"J G Z Z F B ' %.%.H &X].`.j.E.d.d.z.d.f.f.a.6.J . p j r }.i.,.g.:.6.7.7.). XB.*X* X *   8.Z O.d.s.!.+.qX_.W.`.).uX  1 = , - & < 4 3 ",
"A G b J F F ..@.&.Z `.N.f.f.f.f.j.z.f.w.f.v.5.N j t d W.p.A.P T ( ) c c l 7.I.>.9X  & & 2 v.5.d.6.w.A wXD.u.).@XyX  1 * = = = 1 4 4 ",
"F K C K F B | #.>.M 2X5.d.Q.Q.f.d.i.f.X.=.6.a.p S A -.d.A.Q g U ~ ~ ) h U l Y .XW.j.  ,   6.w.q. .J O.W.u.y.n.3.#X  , = = , , , - 2 ",
"} J J J J n } @.%.M tX4X|.W.{.|.2XW.^.^.f.g.H j f p {.j.d.l ~ / 0.~ >XR ) R T v.}.|.X @   5.pX5X5X2X0XT.:.B.K.n.].  4 & = 2 2 - 4 2 ",
"L J L J X.A F | #.X.w. .O.+.+.+. .6.%.o. .6.j A N =.~..XT ) ) U :X9.9.;X0./ Y x *X.X5X  *   D.=.i.T.2XH.u.N.F.M.eX  < * = 1 - = * * ",
"} J X.P X.Z o.| ....t.c.d.a.d.6.6.6.X.5.7.6.u B | y.f.E.g =X=XE R 0./ -X-XW Y T w.;.D.  1   g.i.i.g.^.y...>.B.N.rX  < & , , 2 # $ * ",
"F D X.J P _ _ #.%._ q.Q.w.5.r.O.K X.I O.5.r.u A ` q.e.q.Y ) ( 0.0.;X/ -X-XR ( c 5.y.`.  ,   s.s.+.p.^.v.p.B.B./.9X  < & = 1 , = : $ ",
"L F P I X.' ' ] %.} a.q.6.O.6.q.K Z P 5.5.5.&.%.,.d.e.t.l ) ( E / 1X9.>X-X-X;Xc 6.:.wX  ,   U.s.i.y.j.D.f.R.F.`.eX  < & * 1 , , 2 % ",
" . .X.X.P ' ..%.+. .r.l.6.X.6.d.6.P 6.5.O.5.| +.L d.t.i.! =X^ / ;X-X>X>X0.U E c E.f.D.. -   !.s.j.y.i.g.p.N.M.K.+X  < # = - = , 4 2 ",
"F F K C } } ' :.:.M b.j.d.r.r.w.5.a.a.r.r.Q +...X.O.d.W.U ! ) / ,XE :X9.0.E / v 4X3Xf.5 4 X /.u.f.z.N.y...>.N.N.[.  < & = * = = - 3 ",
"Z F ' F X.} s ] ..M w.k.=.h.d.=.r.f.d.v.6.5.P A O.+.~.v.i.z U ! ( ( Y W E 0.z ^.E.j.5 e w O.3X^.T.U._.=.E.f._.R.9X  9 & & * = & % 2 ",
"F } B D J o.` ] ..' q.,.=.6.e.d.d.w.w.l.r.5.5.C O.i.D.b.i.q.z Y R Y ^ / U =X7.qX0X6.t t 4 5.6.X.+.w.f.~.-._._.>.wX  < & & * , = 4 % ",
"L } B F F o.] | o.] v.p.i.d.a.j.k.E.d.r.l.a.a.o.%.:.>.f.r.i.E.E c z c ! c F.].$X|.d } a w l.a.l.a.l.Q.i.|.W.R.m. X  9 & & , , = : * ",
"K ..A L } +.] @.o.] b.N._.Q.E.f.h.E.a.+.a.T.v.P ] n.N.;.c.d.f.~.A.p.W.G.I.(..X(.V j j e z.a.z.T.z.T.6Xv.p.F.y.;.#X  1 = & 1 1 - : 2 ",
"L +.} F -.F { @.o.] T.N.f.d.+.d.=.k.E.l.f.f.r.q.J *.V.&.:.f.j.k.i.H.H.:.W.(.p.N ' s w P 6.f.z.f.f.i.2XD.F.V.N.u.[.  q * * 2 1 - * 2 ",
"I =.y.K  .A ] %.} ] v._.u.a.a. .-.i.~.U.d.d.d.w.q. .#.2.n.w.=.h.i.H.d.5.i.] 8.} N p +.a.6.a.w.z.v.D.aXR.R.B.m.N.[.  4 * & 1 - 3 $ - ",
"6.y.d.P -.' ' p.#.[ h.i.a.w.6.O.q.O.=.T.o.o.d.I I q.7.$.u.J q.=.+.>.L O. .#.#.A d o.i.} +.%.8.8.p.m.0X6.R.N.p.|.[.. q - , 2 & 4 - 1 ",
"+. .K A F A B  .%.} j.~.5X|.E.f.j.j.v.d.U.i.d.i.h.O.Q 5.I X.} g.1.2.-.K b u.o.a.W.^.6Xv.:.u.N.N.N.R.dXa.f.m.V.M.wX  0 % 3 < - 9 * - ",
"..Z G C F M n n &.N ~.f.d.e.d.r.I d.l.=.7.q.d.6.X.P O.6.r.r.Z N.A.n.K Z C H J K q.w.2Xf.m C A H P o.Q.U.f.2.D.T.9X  3 % 3 : - 1 % - ",
"%.X.O.}  .B K I | N @Xv.t.e.q.O.            P O.6.q.O.q.q.=.=.J I L 5.P K H P 7.X.r.f.X.t X o     2   f.P ;./.D.wX  4 - 1 3 1 3 % & ",
"#.| O.o. .C A K ] _ D.v.t.t.q.H  .8X$X|.gX  P r.a.6.d. .+.y.r.r.r.w.P r.5.7.6.d.q.6.f.a.y f.|.}.|.qX  y.} u.N.N./.  3 3 2 - - : - & ",
"..+.I o.+.} K J %.B |.d.c.t.K J P d.r.5.2X  P 7.l.a.r.L q.r.a.a.d.q.d. .6.z.a.7.r.6.f.a.q 6.z.r.a.T.  :.| n.$.u.`.  4 : : % 2 3 - & ",
"#.%.I } X.K F H #.N 2Xf.e.I I J K 2Xd.d.pX  I d.v.{.=.w.a.d.z.d.6.z.~.w.y.d.d.c.q.t.l.x.r d.~.d.E.^.  T.s.Y.R.(.eX  4 1 1 % - 4 1 - ",
">.%.I }  .X.J K &.N W.j.d.q.G } D p.v.v.2X  P w.v.>XI d.w.z.a.a.w.^.f.a.y.h.v.b.c.t.5.T.u } d.T.f.j.  3X@.N./.V.wX  3 - 1 3 * - * - ",
">.N.O.} +.A Z I %._ T.H.v.Q.7.H +.n.D.N.$X, Q ^.E.6.X.5.6.s.Q.Q.u.E.i.+.d.d.d.v.f.+.f.u.q N.n.m.F.%X  aX` &./.B.[.  4 & * < # * * 1 ",
"| i.O.X.6.+.+.s.| A F.R.U.T.E.z.u.8.o.| %.K. .v.^.T.a.q.q.z.v.f.O.~.^.T.E.T.<X3X^.4XqXu.y.%.%.+.:.f.(.T.f.m.`.R.9X  9 5 1 < < 4 - - ",
"V } L F F :.+.@.Z G M.1.p.>.:.,.N.T.+.o._ 8.p.^.W.^.w.e.r.v.z.c.w.t.4XT.f.m.i.g.f.m.R.>.F.i.s.o.f.f.i.-.-.F.N./.9X  1 5 , 9 q 1 1 2 ",
"] } +.] _ ' | &.B H 2.C._.(.N.p.N.%.u.u.N.R./.(._.!.e.d.b.b.a.d.{.7X<Xm.m.N.p.D.D.p.T.R.p.u.N.N.T.p.E.E.i.D.3XF.9X  < 1 2 4 4 - * * ",
"#.] ..o.@..._ 8.F A M./.K.B.2.F.R.R.N.V.V.B.B._./.N.O.v.i.i.E.~.v.7X{.R.R.N.B.C.K.B./.N.u.u.N.N.i.y.D.f.;.T.N.m.OX  < - , < 4 : - - ",
"#.} _ @...+.@.8.J b n.B./.R.F././.u.n.V.>.V.s.F.(.<Xz.d.k.E.T.R.j.|.|.`.B.V.R.N._.W.F.R.!./.N.g.w.i.d.!.s.V.u.f.K.  9 1 1 1 1 3 3 - ",
"@.| } @.o.%.%.&.a p.L.F.<.>.<.3.R.n.1.y.p.i.<.:.-.[ <.<.1.%.:.:.1.1.S.#.#.>.3.M.<.1.<.F [  .=.=.:.=.-.(.A.>.<.D.@Xy.  3 < < 3 1 - - ",
"&.@.8.} #.%.s...F.#XK.S.D.H.W.g.D.D.g.i.f.g.i.-.,.;.,.;.=.,.y.,.u.u.>.a.p.a.p.A.<.<.G.;.,.-.a.i.u.i.=.(.n.n.K.S.M.+X:.  4 , 3 1 : - ",
"&._ >._ ] | @.<.p.-.q.w.6.O.+.O. .X. .+.=.y.O.O.e.e.e.a.q.q.h.t.w.v.k.p.h.=.:.p.g.g.:. .=.p.p.N.g.A.W.g.;.2.2.A.B.n.I.n.  < - 1 1 * ",
">.} :.' :.%.A.K.p.P O.-. .O.-.=.O.=.-.w.w.w.q.O.e.-.O.-.=.i.i.h.i.E.-.-.-.-.-.,.i.j.E.=.y.N.D.N.p.i.f.,.,.p.F.n.m.F.3.OXu.  < 1 - - ",
"..P I Z +.M.Z.D.j.f.y.p.p.i.:.,.,.k.g.D.D.f.g.e.i.e.O.I O.y.d.f.:.i.H.m.<.1.>.A.G.(.}.y.i.p.f.D.f.j.8XD.F.M.<.>.M.K.M.D.~.H.  < 3 - ",
"#.L J u p.S.p.u.=.,.D.h.h.e.q.w.w.r.d.f.y.y.r.=.-.-.y.w.i.i.-.-.-.i.=.} ..w.=.a.a.f.W.i.,.m.m.m.K.(.9X..:.1.p.m.n.n.>.i. .H.W.  0 - ",
":.X.b n.F.M.F.(.(.D.p.<.,.w.-.q.i.y.=.+.-.=.h.j.E.j.X.O.=.a.d.d.-.g.d.=.y.p.j.j.i.i.D.f.D.F.A.N.3.A.S.A.#.n.M.N.M.N.F. XF.D.F.H.  0 ",
" .J m.B.n.>.1.>.>.1.$.M.J.M.3.3.F.n.>.$.>.n.m.F.F.D.-.-.w.d.i.f.i.{.(.F.n.p.n.A.F.n.F.u.p.2.p.p.p.i.d.p.;.n.F.3.n.1.>.n.1.$.&.P.L.  ",
"D i.p.;.=.-.;.<.p.p.p.N.:.:.p.N.M.<.n.:.,.A.f.D.G./.D.<.:.i.N.D.2.A.h. .;.3.N.S.M.m.F.<.>.u.p.>.>.>.u.p.y.y.:.=.+.-.;.<.p.p.D.u.p.W.",
"G.3.3.A.p.p.A.G..XG.p.g.<.<.g.A.OXG.P.oXoX&XoXoXoX+X'.&X+XXXXXP.oX}..XXX'.P.I.I.P.'.XXXX'.I.J.'.'.'.+XD.m.3.A.A.<.A.G.}.}.p.<.A.<.A."
};
