/* XPM */
static char *_b98dbd27ea4458ccca394a530281ad2PqU9cTMtCytIYN6V[] = {
/* columns rows colors chars-per-pixel */
"66 66 204 2 ",
"   c #000100",
".  c #000906",
"X  c #020B0B",
"o  c #030E13",
"O  c #051417",
"+  c #0A1616",
"@  c #06161B",
"#  c #0A171B",
"$  c #07181D",
"%  c #0B1A1D",
"&  c #101E1E",
"*  c #071720",
"=  c #091720",
"-  c #071A21",
";  c #0C1C22",
":  c #101E23",
">  c #0E2125",
",  c #0E2229",
"<  c #112125",
"1  c #12232A",
"2  c #24343C",
"3  c #22383D",
"4  c #233C42",
"5  c #2C4344",
"6  c #2D464A",
"7  c #2F4849",
"8  c #334744",
"9  c #3E4745",
"0  c #344A46",
"q  c #3C4B46",
"w  c #314749",
"e  c #384749",
"r  c #344C4B",
"t  c #3C4D4C",
"y  c #35504F",
"u  c #3B524D",
"i  c #364D51",
"p  c #3A4F51",
"a  c #375052",
"s  c #3C5453",
"d  c #3D5855",
"f  c #3D5658",
"g  c #3E595A",
"h  c #404744",
"j  c #424B46",
"k  c #444E4C",
"l  c #44524D",
"z  c #4D554D",
"x  c #4B594F",
"c  c #445A4D",
"v  c #52584E",
"b  c #435553",
"n  c #4C5653",
"m  c #435A55",
"M  c #4C5B55",
"N  c #43565A",
"B  c #4A575B",
"V  c #445B5B",
"C  c #4C5D5B",
"Z  c #525653",
"A  c #535C55",
"S  c #5A5D54",
"D  c #545E5A",
"F  c #5A5F5A",
"G  c #525659",
"H  c #4B6157",
"J  c #46605D",
"K  c #4D635D",
"L  c #4E685D",
"P  c #526156",
"I  c #5B6257",
"U  c #53635D",
"Y  c #5B645D",
"T  c #546A5E",
"R  c #5C6A5D",
"E  c #62665D",
"W  c #636A5E",
"Q  c #6B6E5C",
"!  c #6F735F",
"~  c #455E61",
"^  c #4B5E61",
"/  c #535F63",
"(  c #595F61",
")  c #476262",
"_  c #4D6463",
"`  c #4D6865",
"'  c #4D6569",
"]  c #4E6A69",
"[  c #536563",
"{  c #5C6562",
"}  c #546A64",
"|  c #5C6B64",
" . c #546669",
".. c #5A636A",
"X. c #556B6B",
"o. c #5B6D6B",
"O. c #5C7166",
"+. c #56716C",
"@. c #5D726C",
"#. c #5E786C",
"$. c #566E71",
"%. c #5B6E71",
"&. c #567171",
"*. c #5D7272",
"=. c #5D7976",
"-. c #5F797C",
";. c #5D7578",
":. c #626663",
">. c #646B64",
",. c #6B6D65",
"<. c #62666C",
"1. c #656D6A",
"2. c #6A6E6B",
"3. c #736F6B",
"4. c #647166",
"5. c #6C7266",
"6. c #63736C",
"7. c #6C726B",
"8. c #65786E",
"9. c #6C796E",
"0. c #737364",
"q. c #7C7667",
"w. c #747865",
"e. c #72746D",
"r. c #7C746C",
"t. c #74796E",
"y. c #7C7B6A",
"u. c #7B7A67",
"i. c #666D72",
"p. c #6B6E71",
"a. c #637473",
"s. c #6D7472",
"d. c #657A74",
"f. c #6C7B74",
"g. c #637579",
"h. c #657B7A",
"j. c #6D7C7C",
"k. c #737572",
"l. c #797574",
"z. c #747A74",
"x. c #7B7C74",
"c. c #71767A",
"v. c #757D7A",
"b. c #7B7C7A",
"n. c #817D6D",
"m. c #837C74",
"M. c #877D78",
"N. c #6D817B",
"B. c #6A8076",
"V. c #738176",
"C. c #7E8175",
"Z. c #74837D",
"A. c #7C837D",
"S. c #75897F",
"D. c #7D8971",
"F. c #82816D",
"G. c #8A8274",
"H. c #888977",
"J. c #82837C",
"K. c #8A857D",
"L. c #8C897C",
"P. c #918A7D",
"I. c #95857C",
"U. c #6C7E80",
"Y. c #757E82",
"T. c #7B7E82",
"R. c #6E8482",
"E. c #6F8884",
"W. c #748482",
"Q. c #7D8483",
"!. c #7C8A85",
"~. c #7D8B8A",
"^. c #748886",
"/. c #7E9793",
"(. c #838583",
"). c #828A84",
"_. c #8A8B82",
"`. c #848B89",
"'. c #8A8D8A",
"]. c #84868B",
"[. c #938B83",
"{. c #9B8985",
"}. c #8F9087",
"|. c #86918C",
" X c #8B928C",
".X c #939085",
"XX c #9B9386",
"oX c #93948D",
"OX c #9C948A",
"+X c #93988C",
"@X c #9F9889",
"#X c #8C9492",
"$X c #809291",
"%X c #939693",
"&X c #909A95",
"*X c #989E96",
"=X c #A2968B",
"-X c #A8998F",
";X c #A39B8C",
":X c #A19E97",
">X c #99A097",
",X c #A9A39C",
"<X c #AAA6A2",
"1X c #B2B1A3",
/* pixels */
"% + % % : ; ; ; ; ; ; ; ; - $ $ ; ; $ * ; * @ O @ - ; - - $ @ O # $ = $ @ $ $ $ ; $ : ; ; ; % % = + # : ; $ % % ; ; ; ; ; ; ; ; ; ; ",
"E ; + ; % ; % ; ; $ % ; $ $ O O @ $ @ @ @ @ $ $ @ @ @ * * # $ = = $ @ @ @ $ $ ; # $ $ # % % # % + # + : < , : % & % $ ; ; ; - $ # @ ",
"S >.% O ; = $ # , < ; $ + @ # % ; $ @ = $ $ O O @ $ $ # ; = = ; ; - $ @ # $ = $ = ; ; ; = : # # % : = 1 : ; ; - ; # $ ; > 1 ; $ + % ",
"S n 1.1 o ; $ $ > ; $ + + @ @ @ @ ; ; ; $ $ * O @ @ $ O $ O $ * @ O O $ @ O O @ O o ; & & = % & % % @ = # = ; ; % ; $ ; > % + O % % ",
"A M k e.: X # O # ; % % $ # $ % ; = = - ; $ $ $ @ * $ O O # @ O O @ O O O @ @ $ O O # + + % % % % # # ; ; ; $ ; % + O O ; % % > : % ",
"F Z D n 0.1   % ; + % ; $ ; ; $ # # # # $ @ O + @ @ O # ; - # # = ; = % ; ; % ; : : 1 % % % & : % % : % # = * ; $ $ $ % % % > & % % ",
"Y n :.n A e.2   % + + & % % + % ; % + ; # @ + $ @ O $ # # # # # * = : ; % % ; ; : : 1 : : : % % # & : $ @ # $ = @ @ O $ + ; % % ; % ",
":.t Y k z l m.2 . < & & # + + + : + % + @ % & % % & % % % ; ; % + # & + % + + + @ + % : : : : : : = : ; $ $ $ @ $ # O % $ $ + > % + ",
"| V [ D | s.1.:.3 . : ; ; : : 1 < < < & : : < : : & : : : : < < : ; ; % $ % % # @ % ; ; ; ; $ ; ; % $ : : : ; ; ; ; < O > > , ; % < ",
"A i N 4 m Y U h 6.3       .           .                                                                           + % % > > > ; & % ",
"R m f 6 V { A t y U  .X. ._ [ D 7.X.Y 7.2.v.7.1.6.z.z.x.s.@.8.o.v.s.j.:.:.2.,.>.7.,.2.2.2.1.<.2.E 2.e.%.^ } } X.a.o % > + > ; $ % : ",
"P V s p f F F k u b o.a.o.a.*.@.t.j.z.e.J.L.b.J.A.M.t.K.+XJ.C.7.b.v.V.x.3.r.b.2.b.e.t.b.e.k.e.x.z.e.x.1.X.U | o.s.X % & % > - ; : & ",
"m V b r f Y C k s k [ } } X.} ..A.f.z.C.C.x.r.x.x.x.5.K.K.A.z.e.v.b.W.A.J.t.1.<.p.<.>._._.2.Y 2.J.,.l...a.[ @.o.6.X ; + $ + % > & % ",
"g V b 7 f C l k y q X.+.} A d.| v.V.s.l.z.J.z.l.e.7.e.7.7.W e.x.b.J.5.D.O.*.a.d.o.4.D.m.M.>.,.x.e._.oX| H [ d...~.X $ $ $ + % - % % ",
"s d s w f C n M s t O.d.a.d.| O.z.@.z.t.z.e.e.x.e.e.l.7.0.k.l.b.l.e.b.>XA.!.f.).).}.1X4.f.v.v.v.A.A.'. Xs.s.s.z.,X  ; ; + % $ $ ; % ",
"y s b r N D M n s N I 4.f.f.a.8.7.} 7.x.t.l.b.e.7.x.b.x.z.J.z.e.t.W l.F.H.C.x.e.0.7._.} m 6.o.| U } a.'.v.7.z.A.;X. $ ; $ $ O $ % @ ",
"m s m 0 s C D B M C F 2.e.l.z.v.c.:.Y e.e.k.7.t.z.e.b.x.t.z.2.k.l.e._.z.E ,.Y l.t.R +XU J V $.C _ V ] 2.e.l.e.l.XX. # ; @ ; $ ; ; ; ",
"d s V 4 b ^ D n [ B 2.<.Z I e.:.1.{ I >.k.e.e.e.e.5.x.e.x.k.>.2.7.5.z.,.>.>.7.3.l._.z.C V *. .g.g._ *.A.b.(.'.b.=XX # > ; ; $ ; 1 > ",
"b V J r s B j t b 9 v.A F { 1.1.v.1.s.e.,.z.7.e.e.5.e.t.x.2.>.:.,.e.e.,.Y >.e.r.m.l.).o.*.^.%.X.] %.U.v.l.z.e.b.@X. @ ; ; $ $ $ ; $ ",
"s _ d r p f b A Y t l.{ { 7.>.7.A.| 1.>.e.z.7.l.2.7.z.e.2.1.1.7.7.>.A.E v e.Q 0.q.W f.b X.o.a.^ [ %.*.v.Y 2.:.,.;X. + $ - ; + $ ; ; ",
"s B N i b f b Z F q z.(.7.9.9.9.'.>.I k.k.x.2.1.7.2.4.4.7.1.{ z.:.D v.7.A S Q ! Q E 9.H } a.*.o.g.~.} | Z.F :.2.=X. # - ; ; $ - = ; ",
"b N ~ i b V C A { b r.K.l.5.z.I 4.9.A | 8.} | 6.6.4.7.>.6.1.Y >.U Y z.l.D E 7.7.5.5.4.U d m } W.o.l } ^.z.1.1.x.OX. $ - $ - $ - ; - ",
"m b V i d N b A I b v.'.v.4.b.)._.).).Z.Z.Z.v.N.@.U Z.oXA.Q.(.#Xv._.Q.s.2.1.z.z.!.Q.f.C  .i.} ..} } C `.Z.k.v.Z.oX. O * $ $ $ # - # ",
"V s d 6 s p n A U b Z.6.a._ C } c.{ ( b m V b C ] H P T c m m V Z U 1.1.[ { s.b.z.2.v.<.( @.@.o.a.*.[ A.z.2.6.} '.  O * $ O ; # $ # ",
"K r s r s y m A U C k.v.f.1.z.v.Q.T.c.X.o.h.c.o.+.} a.T U } i.a.s.s.7.1.v.Y.v.z.A I 9.Y [ [ [ } 6.a.K z.v.{ D k.,XX O - $ O $ @ @ ; ",
"_ s V f J y b Z S C y.e.x.t.}.e.s.c.p.} a.W.j.*.+.X.U | o.^ [ } | 7.7.j.( p.:.1.D A 9.Y Y C X.#.o.g. .k.:.1.z.k.OX. O $ $ @ @ $ ; : ",
"b a i r s q l D D B I.G.J.6.f.@.@.a.g.6.d.a.o.L _ U o.| D X.} [ p.<.c...a.o.@.W.f.@.Z.} X.s [ h.1.T.o.'.'.z.A.x.;X. + ; - $ + , : : ",
"u a 6 s d u A D F s b.e.s.*.a.a.6.g.a.X.d.j.X._ +.o.o.| o.o.o.X.1.1.{ %.@.o.o.f.V.O.Z.[ g.X.} a.X.i.M ).f.1.A.K.OX  $ $ @ $ $ ; : = ",
"s s 7 s s r n A Y q Y.^ $.g.g.o.X.o.a.C } a.o.X.*.8.} U @.o.%.X.{ ( G X.X.a.6.@.@.T Z.[ V &.} ` V m m v.2.{ ,.,.[.. @ $ @ ; * - : % ",
"m d a f d r b D Y 8 |.|.Q.W.Q.!. XA.Z.!.v.8.B.d.| d.B.Z.f.Q.Y.~.Y.j.T.W.~.h.v.v. XoX*XC.!.&X>X>X#X~.!.Z.U 2.k.>.K.X - @ $ ; $ $ : = ",
"C s d f N s l n D n } L H U [ D K [ } K U X.@.o.d.N.` _ L _ X._ _ a.N.} X.U U R T | T U R @.6.O.O.v.|.B.| s.7.7.[.X ; @ $ ; ; $ + % ",
"V s V g ~ t B n A C ] X.X. . . .[  .^ .. .[  .^ +.X.*.*.' ' $.U.+.h.h.a.a.} +.f.f.a.} l K T O.f.6.8.S.6.D Y e.,.=X. ; O * ; - O # # ",
"M u V s f t b A F n ~ U.$./  ._ V ~ ^ ^ X.*._ J ) ] ] ] &.&.-.-.*.h.8.} *.X.} O.8.N.X.K } 1.1.i.@.6.Z.d.| s.7.7..X. ; O * ; ; @ + % ",
"m y d f B n l Z { b ] ' ' _ ^ ' N s ~ ^ X.&.) ~ =.] ] +.+.] -.+.` d.8.*.+.a.L d.O.d.g.} [ 1.i.p.| @.f.f.| z.k.M.XX. - O $ ; $ $ % # ",
"K V C ) V b C Z C V ^ %.^ ~ [ *.' N  . .' o.&.' X.) &.=.&.` ] +._ N.6.X.+.h.*.T #.X.g.[ C { p.p.d.| O.6.6.k.7.z.I.X ; O @ ; $ * : % ",
"b u V r B b G Y Y q *.*. . ._ _ [ $.X.$.X.$. .) _ ] _ X.+.&.X.&.` *.[ } } +.O.8.| a.R.} o.c.c.2.s.d.8.O.U { ,.2.H.X ; @ @ $ # $ & = ",
"y q n u V b 9 z U q [ #.} *.*.` [ =.@.U.X.$.X.^ *.h.o.:.v.!.V.|.^.$XX.#.| O.+.6.} 8./.h.Q.'.'.!.Y.c.T.} 8.1.z.v..XX ; @ @ @ $ @ & % ",
"m b q d d B 9 z C l ) } ` [ } o.X.X.} ;.%._ %.$.$.*.X.0 V ) d ) +.*.*.8.H L | | 8.W.j.L d } o.[ } } a.N.P v.Q.| L.X ; @ @ @ $ $ % % ",
"V m q d s B M z C v *.[ U } } g.g.h.*.%.g.g.h.*.g.*.] ~ ~ U a.h.a.#.*.} d.` H M v.`.`.*.` %.g.g.o.%.j.#.!.Z.v.1.L.X ; $ @ $ - - % % ",
"V H l u m C v Z B n g.s.Y.j.h.@.6.B.O.} a.j.W.L +.*._ ] ' o.g.U.@.a.j.1.k.{ D { 1.Q.!.g.g.8.g.j.g.j.~.g.O.f.:.I [.o % $ $ ; ; % & ; ",
"V C M u K b A A C Z a.1.i.*.X.6.O.#.B.a.f.j.a.*.} X.X.~  .g.*.*.o.[ v.s.1.:.1.7.v.A.S.*.} h.v.f.h.6.~.V.1.s.7.Y L.X : $ @ $ ; ; + : ",
"d U ..m V l x F V z o.Q.o.} [ C L O.E.f.a.d.a.*.X.a._ _ $.o.%.g.} [ W.).s.1.v.C.9.z.!.%.X.a.*.j.j.f.&XA.v.e.2.| K.o < # O ; ; ; + ; ",
"K [ X.f H x z T I z *.+.o. . .^ o.` +.].1...h.X._ *.g.X.X.} #.*.L O.=.I R 5.O.Z.f.6.8.U @.>.>.7.7.z.%Xo.v.k.| Q.K.O : $ $ > O > + % ",
"} U C f u b l C Y M X.d.W.Z.6.o.O.#.O.g.a.1.| +.@.X.%.$.g.o.X.} T d.d.T 4.Z.9.C.A.A.|.f.| 1.k.f.v.z.:Xa.o.,.,.7.{.# : % ; ; $ < ; % ",
"^ t p e u e 8 5 F h h.h.d.-.h.-.@.h.R.+.a.a.*.*.$._ ~ o.*.*.+.o.T B.d.V H *.o.` B.d.&X!.6.k.s.v.A.J.<Xj.a.,.7.a.{.X + & ; : + : + # ",
"{ b ~ b V q s g A 9 ).a.+.] ] &.$._ %. ._ +.o.J _ X.X.} +.O.O.} +.} i.^ V V B ] } X.Z.U [ z.7.1.5.b.l.O.H { z.s.[.o % : ; : % : + @ ",
"I B C C C 0 s s n k 5.d.+.&.X.]  .g.o.U.*.$.g.*.*.X.*.X.} #.*.o.@.+._ X. .[  .g.X.X.d.h.a.z.s.k.e.z.J.T U { z.2.b.X & & ; & = % % @ ",
"S C ~ B J f f s A t A.X.=.=._ _ X.X. .X.$. . .X.h.*.@.l X. .$.*.#.X.@.[ ..g.g.X.*.o.j.o.g.e.z.| e.m.'.D G ,.{ | H.o & % = + ; ; : # ",
"F D V B V d s i D q !.6.X.` ` _ ] ~ $._ X. .+.a.j.R.X.X.%.g.*.i.} @.W...X.*.*.h.X.+.h.j.g.k.f.z.x.t.J.1.1.l.p.k.oX. & % : % % & ; + ",
"Y Y V b V B b s Y h f.s.+.X.g _ h.;.X.X.} @.*.| h.~.~ %. .g.o.X.} j.j.%.| a.h.j.h.=.&.W.c.z.s.1.W | t.Z.1.3.b.3.[.. % % % ; # % % % ",
"E 1.~ b K p e f F k 1.8.g.U. .X.%. .o.K X.+.d.E.h.o.~ ) [ %.c.h.a.a.@._ o.o.*.@.@.H o.1.7.A.s.z.9.W I %Xj E l.2.M.X ; @ # ; # + @ % ",
"I 1.X.V U B ~  .D b a.Z.a.U.W.j.Y.j.c.X.[ o.a.h.W.h.X. ._ %.g.a.U h.R.a.v.d.`.`.Y.~.&X:.k.s.v.x.Z.v.A.).Q.:.(.v.oXo : ; $ : % % ; # ",
"q t m u l | [ F e p ,.W 1.R R O.v.(.6.Y Z 2.6.f.Z.Z.o.} ] *.g.*.} +.!.N.6.6.| 8.8.z.(.{ z.6.s.Y B.A.d.H c 8.k.7._.  $ > ; 1 1 : ; % ",
"z M C n k b b D t p E ,.t.x.7.| 7.:.:.p.2.k.v.b.(.v.X.+.*.U.X.X.R.h.Q.7.| 7.1.6.f.| 7.z.2.6.s.s.f.8.f.j.o.7.Q.s..X. % ; ; ; < % ; # ",
"F l G C Z C k { s i ,.e.x.k.>.5.v.v.s.2.k.l.k.b.x.s.V *.+.X.*.h.d.E.~.p.c.2.2.3.l.3.v.7.Y :.2.7.@.O.f.8.L 6.s.:.L.X # ; ; ; : & % % ",
"D n b D Z U G Y b w { 3.c.e.7.v.l.:.2.2.Y 1.1.s.z.).i.X.*.h.f.v.d.S.W.(.l.2.v.s.Z.v.9.v.T.b.7.d.} X.X.z.<.i.:.1.e.  ; % ; ; : % ; % ",
"A B b A Z [ D Y r s t.7.Y I | W s.W I U | | Y | T P W W W Y U { I I 1.I z S W Q W E R c u H K [ U K K 8.5.Y Y 4.J.C   : : ; ; ; % % ",
"Y Z ( n A U ..D n K.r.5.7.O.8.6.1.6.o.[ } @.[ K J H P H M V U K { Y { { { X.| 4.} P 5.P K m J } ..| C z.7.| 7.e.e.L.l   : - % : % % ",
":.k E l Z Z Y D 9.} [ ` _ K } _ C K U C [ [ L J } O.` } _ } +.X.[ +.O.} o.[ U | O.4.| M I | 6.6.| O.f.4.M Y W W ,.Q D.l   - % ; % % ",
"{ l Y l M D | >.| s V K m m V V d m V _ J _ V N ) J J K _ ` ` X.} *.} L K L L T T o.#.J L 1.1.:.| } | T U >.1.7.>.>.I H.p   : ; & $ ",
"Y d ~ b U 7.r.7.d.+.U { { } U U } O.O.O.o.1.@.} } } J d V U  .o.T } 8.1.T I S R 7.z.B.} _ | o.@.o.O.j.8.6.2.| I :.l.e.s.Z.~   : % < ",
"U s b 4 b 0.Y U ) K | #.+.X.` } _ [ +.@.} [ } J H J L _ } } L L H T } m M } [ } O.6.V.| U >.>.1.7.z.[.} [ I Y >.,.:.I } V 8.}   < % ",
"I V r p e.1.7.e.z.8.4.| } ) g J _ _ ) J J ) } X.#.+.C V J }  .} U } } C _ } X.+.} _ o.o.6.7.4.>.Q >.5.>.S E ,.>.>.,.7.x.7.8.z.O.  < ",
"M V C l.>.>.Y >.>.I S E 5.4.W R 7.,.E S F ,.1.7.k.7.V ) _ X.X.X.} =.z.2.>.>.>.4.6.>.7.>.:.>.1.| O.O.O.O.U Y 7.>.1.Y Y 7.Y S I t.e.  ",
"d ) 1.H A H A I R | :.1.| { :.7.1.Y Y U U | { 1.9.7.o.} U [ o.s.| 8.4.H U Y Q ,.7.,.5.R Y { | | U U Y { { { U D K A P I | >.1.1.5.2.",
"T >.R O.| U O.8.V.8.R O.T I } | C.9.0.y.n.G.F.C.n.F.n.G.F.u.y.0.y.t.B.w.0.w.e.0.t.0.u.y.u.5.,.q.q.q.n.1.} R O.| I T 6.f.f.O.R O.L 4."
};
