/* XPM */
static char *_cf3f90ca58c43f2c03cb80b33f6bbcd3v0ueIPI4Qsvw3fE[] = {
/* columns rows colors chars-per-pixel */
"64 64 32 1 ",
"  c gray11",
". c gray19",
"X c #343434",
"o c gray22",
"O c #483818",
"+ c #543C1C",
"@ c #045800",
"# c #046400",
"$ c #047000",
"% c #047C00",
"& c #5C4020",
"* c #744C28",
"= c gray25",
"- c #484848",
"; c #4C4C4C",
": c gray33",
"> c gray36",
", c #646464",
"< c gray44",
"1 c #7C7C7C",
"2 c #885830",
"3 c #905C34",
"4 c #9C6038",
"5 c #A0643C",
"6 c #A86840",
"7 c #B47044",
"8 c #BC7848",
"9 c #048800",
"0 c #049800",
"q c #04B000",
"w c #04C800",
"e c gray55",
/* pixels */
"eeeewwweeeee: XXeeeqwwwqq% Xeeeeeeeeewwwwq: Xeeeeeeeeewwwqeeeeee",
"-,16000,,>,:= XXe161q000%@ Xe,qq1ee161qqq,= Xe:,1411ee1q01e14*>,",
",,e1%0%,>>,,= XXeee1q00%%= Xe10q0e7ee10q0>= Xe4e%<1117<,%,,,,,,<",
",,,,10%<,11<= XXe61,000%$= Xee00%,<eee00%:= Xee0%,e,3,>:&:*>>>,,",
":><,,,$,,11,= XXe,,>:0%$$= Xee,0$*,<ee1>$;= Xee0$<,,:-&:;:;:-&;:",
":><<11$111<,= XXe**,>&$X@= Xe<**>,1e1,>:@:= Xe60@><>:&&&:;::-;::",
",<111,:>,,;== XXe>,>*oOOo= Xe,,,,111,;:>>>= Xe<%4;:-&OO&;,*::>,,",
",<11,**,<;o+= XXe41,*&+O== Xe<4411<>-;;>>;= Xe6$,-o&oXO&:*::-;>,",
",,,,,>,<,;&O= XXeee,::&&+= Xee4,,>;:;-:;=-= Xe1e>-&&&o&:>%;&-:>>",
">::,,,<,,:&O= XXee6,><>:;= Xe1,::>:;&:>-;;= Xe11*-&&-::,<$$&::>,",
"============= XXee,,*,>::= X:===@@=@@====== X:==========@@@@====",
"              XXe1,:9,,:;= X                X                   ",
"XXXXXXXXXXXXXXXXee4,%<>:-= Xeeeeeee: XXXXXXXXXXXXXXXXXXXXXXXXXXX",
"Xeeeeqwwweeee: Xe11<<<>-;= XeoO=Oo&= Xe%%eeeee: Xeeeqqweee%%ee: ",
"Xe,1e<qq0-;:;= Xe14,,>;;;= XeOO&o=o= Xe,>,,,:-= Xe,e10q026ee1,= ",
"Xe,<4,00;::::= Xe<>*:;-=-= Xeo&:-&;= Xe*;;,>:&= Xe,11%q%,e1e1,= ",
"Xe14,40>>>,>:= Xe>:*;:;:;= XeO&;-;*= Xe;-:>:&&= Xe,<130$5eee,,= ",
"Xee,2,%2,<,,;= X:========= X:======= Xe;:,,-oO= Xe<5,>%<<ee1,,= ",
"Xee1<,,,,,,;-= X           X         Xe*,<,-&&= Xee1>&%,1ee1,;= ",
"Xeee<<,*;:;:;= XXXXXXXXXXXXXXXXXXXXXXXe*,<;&&;= Xee,&&$,ee1,-&= ",
"Xe<,,,*--:>;;= XXXeeee%%%eeq0qqq00q: Xe=,,;&;-= Xe,:*:,11,>:&&= ",
"Xe,:*::;:*%;-= Xee;:,<43,,ee%000%00<= e+,%:$$;= Xe>*;*,,,;;-=o= ",
"X:========@=== Xe-:,<61,1ee1%%%%$$,e= eo;%;@@-= Xe:*>,,>,;:;@== ",
"X              Xe-,41<,,e111%%%%$<1,= :==@@@@@= Xe2,2,>,,*:-$+= ",
"XXXXXXXXXXXXXXXXe>4e<2*,,,>>,>$>$11>=           Xe2,<*:*,:@=%;= ",
"Xeeee%$$eeeee: Xe:ee%*%%&-;>*:-;$,,*= XXXXX.....Xe*2%:;*,;@$$-= ",
"Xe1<<<11<>,;&= Xe,14%%%$;:*,>,:>11,:= Xeqwqeee: Xe2>%;:::o;%$;= ",
"Xe11e1e<,,,;*= Xe3e6$%%$,,,,>,>,11,;= Xe00%:&O= Xe,<$:&&oXo$$-= ",
"Xe11<44<<,,>,= Xe3e12%%,,,,::;*,%<;&= Xe0%$,;o= Xe1<#&o&OO&$@+= ",
"Xe11,,2<,e1,,= Xe,42*$%,,,:o&::,%,;&= Xe%%*>oo= Xe1,,o&*&&:@@;= ",
"Xe11,::>,,,;:= Xe,<,<3%,,,&o&:;>$*;o= Xe%$:&o&= Xe:*:&&&&;,,@>= ",
"Xe<1,,,,,*0-;= Xe*<<<3$,,;o&:*>,#:oX= Xe%&*&o&= Xe*>,&&--:,,>;= ",
"Xe<<<,1<>;%;:= Xe-*,,,,*:-&*,,11,-OX= Xe**>::>= Xe*,,::,:*>,::= ",
"Xe,<,,,>**%$-= Xe;*,,*=:;:*,1e1,*&o;= Xe*>>>,-= Xe*,,,;:>,,,:;= ",
"Xe,,::**>,%%$= Xe=>,>&&:*,,,,,;;:&O== Xe,,,,;O= Xe5e1>&;,,,>:-= ",
"Xe6<>>*,,,%%$@ X :======@@=========   Xe,,*=&o= Xeee5>::,,**&-= ",
"Xe6<,>*>>,:%%@ XX                   XXXe>*=&&&= Xe4442**>,%:::= ",
"Xe1,,,>,:;+$== XXXXXXXXXXXXXXXXXXXXXXXXe:-&;;$= Xe,,<<,,:;$&o-= ",
"Xe<4,<,;&&X@-= Xewwqqeeeee: Xeeeeeee: Xe,*:;$%= Xe<,11,:=:@&&:= ",
"Xe11<<,:;:==:= Xeqq0%<,;,>= Xee1,::&= Xe,,;=%%= Xe<,11,;::::*,= ",
"Xe<,*::;:;-->= Xe0q1<<<*,<= Xe11,,<>= Xe<,;-%%= Xe,,11>&&:,>,,= ",
"Xe:-:,-O=;:::= Xe,%,,>,>,1= Xee1,::;= Xe>,*;:$= Xe,,1,:oo;:>;;= ",
"Xe:2,2;o=&;:&= Xe41,*;,,1<= Xee,*=&&= Xe,,*&+-= Xe<,,,+O&=:-=== ",
"Xe*,<,==+-:;-= Xee<:&:111>= Xee,-&::= X:======= Xe,,,,&o-::;=-= ",
"X:============ Xe1<>&*<,,;= X:======= X         X:============= ",
"X              Xe44*o:,,,;= X         XXXXXXXXXXX               ",
"XXXXXXXXXXXXXXXXe1<:&,<,>:= Xeeeeeqq0e Xee%$$ee$%%eee: XXXXXXXXX",
"eeeeeewwwee: XXX:========== Xe:;&;0%%= Xe,,<<,**-:==:= Xeeeeeqw0",
"4<>&o::%%,*= XXX            Xe;*;:%$,= Xe22,,2*::*-+-= Xe<1<,*0%",
"1,>&-*:$@**= XXXXXXXXXXXXXXXXe&:-;,@-= Xe,,<<**>;,&->= Xe:,,>>%$",
"<,:;,,:@:*:= Xeeeeeeqwwqee: Xe::;:*@o= Xe,,<>*-&:,;;&= Xe*,,>>%$",
">>,,,,;:**:= Xe*:,,<0qq,,*= Xe======== X:============= Xe*,3*,,$",
":,,1,;::*,*= Xe<<1,1100,::= X          X               Xe,4,,,>$",
"**,<>:::>,,= Xe1ee,<<00>;&= XXXXXXXXXXXXXXXXXXXXXXXXXXXXe6e<,>**",
"**>;-:;:,,>= Xe1e1:>:0%,:;= Xeeeeeqwwwwweeeqwwwqeeee: XXeeee,*;;",
"::&&&&+:>,>= Xeee,&=:%11:-= Xe:4<116000,*:>$%00%:;:>= XXeee1,:::",
">;=&;::**>>= Xe1,**&*,1<-+= Xe21e18e0%<,>,,>%00%-:*,= XXe44<<,>>",
":&=;,,%,>,,= Xe,,*::,,1>--= Xeeeeeee011<,,,*&%0&&;:*= XXe411ee<>",
"&&-:,,$,:*,= Xe4,,2,,1e,&-= Xeeee<ee$1<,>>,>=&:;::::= XXe<11<,,>",
"&-;,,,@;=->= Xe<4,,,,1e>=-= Xeee1<,<1<,,>::;-:,**:-;= XXe144,,,,",
";;*,,,>:&->= Xe4<<>,<,,-=-= Xe1ee,*:;:*:&=&&::,,*:-;= XXe,1%1,:&",
"::*,,:*-&;,= Xe,11*:;+;;&:= Xe1<1;&-:::-o;&&&&;*>,*>= XXe2<%%,::",
":::>:&oo&*<= Xe1<2*:-&:>:;= Xe>,;&o&-:,:&&&&&-:,,,,,= XXe,00%,::",
"============ X:============ X:======================= XX:======="
};
