/* XPM */
static char *b695cb83a7ae4fa4ce230e38c91765e0xgWICYPTo99DomLy[] = {
/* columns rows colors chars-per-pixel */
"64 64 27 1 ",
"  c gray11",
". c #28200C",
"X c #382C14",
"o c #202020",
"O c #282828",
"+ c #2C2C2C",
"@ c #400000",
"# c #4C0000",
"$ c #580000",
"% c #700000",
"& c #7C0000",
"* c #403018",
"= c #483818",
"- c #543C1C",
"; c #5C4020",
": c #6C4824",
"> c #744C28",
", c #880000",
"< c #980000",
"1 c #B00000",
"2 c #C80000",
"3 c #80502C",
"4 c #885830",
"5 c #905C34",
"6 c #A86840",
"7 c #BC7848",
"8 c #D08050",
/* pixels */
"++++++++++++++++++++++++++++++++++++++++++++++++++++++++++++++++",
"6666666666433>O++>334666666666666666666666433>O++>33466666666666",
"4554345554665;o++:343555654554546653435>>3335;o++:55553-;3>33454",
"6645434666656;o++::>5556654434456564555445434;o++:66533;;3>43366",
"6633445556555;o++:354556554544545655445745343;o++:556544>;455566",
"564554466666>;o++:53555555433434565676654433>;o++:45633553345567",
"5655455556565;o++:665544355543>43355665553>;>;o++:55566556566565",
"5454556665555;o++:656434435344:443456554343;>;o++:35455567655666",
".....XXXX*=---o++---=*XXX............XXXX*=---o++---=*XXX.......",
"               ++                              ++               ",
"OOOOOOOOOOOOOOO++OOOOOOOOOOOOOOOOOOOOOOOOOOOOOOOOOOOOOOOOOOOOOOO",
"+$%%&<<<<<<<<<<<<<<<<<<<<<&%%$O++$%%&<<<<<<<<<<<<<<<<<<<<<&%%$O+",
"+$&,<1,,,,$$,&,&<<&,,&,,,%%&,#o++$,,&&&,,,,&&&&,11,,,1,<<<,&,#o+",
"+$,,<,,&$,,&%%,,<,&,&,,&&,,,&#o++$<&%%,&,&<<<,<,<<<,1<<11,<<<#o+",
"+$,,,&&&$&&&,,,,<,<&%%&,&,&,<#o++$,,,$$&,,,<&,,,112,<11<1<<&,#o+",
"+$&,,&&%&,,<<&<,,,<<&,,,<,<,<#o++$,%$%%%&<<<1<<11111,,<<<<<<<#o+",
"+$%&,,&,<,<&<<,,&,,<&,<<<,,<<#o++$&%$&,,,,,1<1<<1<<<&&<<<11<,#o+",
"+$,,&,%,,<1<<<<&,&,,,,,<<21,,#o++$&&&&&,<<,,<111<<,<,,&1,,,&%#o+",
"+$,,%,<,<,<,<,,<<&&,11111<<<<#o++$%$&$#,,,<,,1<<<,,%,<&&,,<,%#o+",
"+@@@@@@@@@@@@@@@@@@@@@@@@@@@@@o++@@@@@@@@@@@@@@@@@@@@@@@@@@@@@o+",
"+                              ++                              +",
"+OOOOOOOOOOOOOOOOOOOOOOOOOOOOOO++OOOOOOOOOOOOOOOOOOOOOOOOOOOOOO+",
"<<<<<<<<<<&%%$O++$%%&<<<<<<<<<<<<<<<<<<<<<&%%$O++$%%&<<<<<<<<<<<",
",<<1<1<122112#o++$<1211<1<,,<&<,,,&<%#%@$&,<,#o++$,%,<,,%%%&,<,<",
"11<<112112211#o++$<<11<<,111<&,&%,&&&$%$@%%<,#o++$<,&,<&,&,&,<<1",
"<<1<1<12212<,#o++$<<<<<<,,<<,,,$$%%,,&%%$$<&<#o++$<&&&&&&,,,,<<1",
"11<<<1111121,#o++$<&<11<<<&&%%$%%%%%,%&&,$&,,#o++$&&%,&<,<,,<<<<",
"<1,<<,,<1<1<,#o++$<<,<<<<,&&$,%%%&%&&,&%%&&,,#o++$&,<<,,<11<1<<1",
",1<&%,,<<<<<,#o++$,,,<<,%%%%$%$%&,%&&<<,,,&%,#o++$,<,,1<<11,<<<,",
"<,,<&,,&&,,,<#o++$<<<&,<1%,,%%&%%&,,,,,&&,,&,#o++$<1112<122<111<",
"@@@@@@@@@@@@@@o++@@@@@@@@@@@@@@@@@@@@@@@@@@@@@o++@@@@@@@@@@@@@@@",
"               ++                              ++               ",
"OOOOOOOOOOOOOOO++OOOOOOOOOOOOOOOOOOOOOOOOOOOOOO++OOOOOOOOOOOOOOO",
"+$%%&<<<<<<<<<<<<<<<<<<<<<&%%$O++$%%&<<<<<<<<<<<<<<<<<<<<<&%%$O+",
"+$%%$&,<,<<<,,<,<1<1<<1<<,<&<#o++$<<<<1<11<<1,,<<111<1<,<,&,&#o+",
"+$%,%$,,<,,,%&&,<11<<111<,,,,#o++$<&<<11<11<<<<&<<1<,,<,,<,,,#o+",
"+$,,,$&,,,<<%$%,,,<<<,,<12<%&#o++$,112122<1<,<,,&<<<,<<<&,&&&#o+",
"+$,&%%#$,,,,<%&%,<<<,<<<<<<%%#o++$,1<11<<11,&<<,$%,%1,,,,,%%%#o+",
"+$&&&&%$&,<<,,,,,,1<1<,<11<&%#o++$<,11<11,,,%%,&,%&,,,<,,&&%$#o+",
"+$,%$%%#$,,<<,<,<,&<<,,,,,1&&#o++$<,11<<,<,,&$&,&%%&%&,,,,<<&#o+",
"+$&&%%%$#$,,<<1<<,<<,<,&,<,,%#o++$,,<<1<,,,,,$$,,&,&,&,,<,,<,#o+",
"+@@@@@@@@@@@@@@@@@@@@@@@@@@@@@o++@@@@@@@@@@@@@@@@@@@@@@@@@@@@@o+",
"+                              ++                              +",
"+OOOOOOOOOOOOOOOOOOOOOOOOOOOOOO++OOOOOOOOOOOOOOOOOOOOOOOOOOOOOO+",
"<<<<<<<<<<&%%$O++$%%&<<<<<<<<<<<<<<<<<<<<<&%%$O++$%%&<<<<<<<<<<<",
",&%&,,%$%%$&%#o++$,,&&,<,<,%%,,&&&<<,<1<,&,,,#o++$<,<<1<<211<12<",
"&&%%%&%%%<&%&#o++$,<,,,,,&,&%&,,,,,<<<,&$$%&&#o++$,,<12111,1<<<1",
"<&&$,%,,&,<,%#o++$<,<,<<1,&&$$%,<&<,<<<<,%&$&#o++$,<,222<11<<,<<",
"<&<,%&,&,&<,&#o++$<,<,1<<<&&$%$<<<,,,<<,1<&$&#o++$<<<2222<<<<,<,",
",,,%%&&,,&,,<#o++$<1<,<,,,,,%&%%&&,&,,<,,,,&%#o++$111<222<,<<,,<",
",<,&%$&&<,,<2#o++$1<,,&,<,,%%%@$$,&,&<11,<,,%#o++$<<1<<1121,,,<,",
"&&<<<1,,11<<<#o++$,<<,,,&,,&%&&%%%$,,,<11<<<<#o++$<&,<,1211<,<,<",
"@@@@@@@@@@@@@@o++@@@@@@@@@@@@@@@@@@@@@@@@@@@@@o++@@@@@@@@@@@@@@@",
"               ++                              ++               ",
"OOOOOOOOOOOOOOO++OOOOOOOOOOOOOOOOOOOOOOOOOOOOOO++OOOOOOOOOOOOOOO",
"+>334666666666666666666666433>O++>334666666666666666666666433>O+",
"+:5565667666765566653>4355566;o++:656455577767655665554356657;o+",
"+:555647788754555656534556576;o++:354445557676665645554444567;o+",
"+:434657777756434545643666576;o++:>55454546566555434445465565;o+",
"+:>:4>76778754343555564566775;o++:554433335566544:53565566566;o+",
"+:4>45566778654:>446565566665;o++:>454>3333365654>44366677543;o+",
"+:43>455665655543446566556566;o++:4>3>4:34>354665535457665663;o+",
"+---=*XXX............XXXX*=---o++---=*XXX............XXXX*=---o+",
"+                              ++                              +"
};
