/* XPM */
static char *c763b6bec57243f2ce755e24b5d401d5ISJHhVFmUxt1pCZ4[] = {
/* columns rows colors chars-per-pixel */
"64 64 16 1 ",
"  c gray11",
". c #202020",
"X c #282828",
"o c #2C2C2C",
"O c gray19",
"+ c #343434",
"@ c gray22",
"# c gray25",
"$ c #484848",
"% c #4C4C4C",
"& c gray33",
"* c gray36",
"= c #646464",
"- c gray44",
"; c #7C7C7C",
": c gray55",
/* pixels */
"oooooooooooooooooooooooooooooooooooooooooooooooooooooooooooooooo",
"----------*&&%Xoo%&&*---------------------*&&%Xoo%&&*-----------",
"=*:-;;-;*&*--$Xoo#;--*&-;--&%&=--;;;==%=***&#$Xoo#=*&$&$#$%&=-%=",
"=*--;---$$&-=$Xoo#:==&==;=-%$$=&---*&=&*&**%@$Xoo#&$@##@#$%&&*@=",
"*=-=;-=%%&*==$Xoo#;=-*=*-**&%$%=-=**=-*&$=&#@$Xoo#%$$$#O#$%%&*%*",
"*=----**%*&*&$Xoo#-=-;=-&=**&%*=-=*===*%$=&$#$Xoo#%$$%O+@$$$-%%%",
"*-=-=*&*&*%*&$Xoo#--;;;=-&-$&&&=;&*===-&&=$$$$Xoo#@$#@@#+$#%-$%%",
"-===-=%*&*&&&$Xoo#=--;;;=&-$&&%*-%=*=&==*&&$%$Xoo#@$@@%$+##&&&#%",
"-=**=**-&$**&$Xoo#==;;;;&%*#=&&=-&&=&%=-&**$&$Xoo#@$O&$$@@%=&%$%",
"=*;*;&=-$$&*$$Xoo#=;-;--*$&&*=%=*$&=&=====&#%$Xoo##@+$####&-&&$$",
"==**=*==#%$&$$Xoo#*---;-&%&****=&$%=***===&$&$Xoo#@O@@$$##*-$&#=",
"==$-==*&$%$&#$Xoo#=;-=--%&=&&**&%#%=&&*-==&$#$Xoo#o##+$#@&*-%*&&",
"&**-=*=&%%$*$$Xoo#=-;=;***&&&*=&$@*=*=-===&%&$Xoo#o$#@#$@*=%=&*%",
".....XXXXoO@@@Xoo@@@OoXXX............XXXXoO@@@Xoo@@@OoXXX.......",
"               oo                              oo               ",
"XXXXXXXXXXXXXXXooXXXXXXXXXXXXXXXXXXXXXXXXXXXXXXooXXXXXXXXXXXXXXX",
"oooooooooooooooooooooooooooooooooooooooooooooooooooooooooooooooo",
"o%&&*---------------------*&&%Xoo%&&*---------------------*&&%Xo",
"o#*-==-*==-=****;*=-=&-==&&&$$Xoo#=---=%$%=&*=*#&%-*-====#$#@$Xo",
"o#&====*=*-%=&-*-*-*-%-*$&$#&$Xoo#*:-;=&#*&&**$$=%*&=-;-&&$##$Xo",
"o#==--=====&**&&=*--=*-==$##%$Xoo#*-=--*#$&$*%$*-&**-;;*=&$$$$Xo",
"o#*-;-*-=*$=*%**--:----;&#$$%$Xoo#-==-;*%&%&*&%&=*%*--;*==%#&$Xo",
"o#=--=;-;=&=*$*=;;-=&-==#$#*$$Xoo#-==-*&&%$=&***-=%=*===*=&#$$Xo",
"o#-;-=;-=&&&*=*;;;;=--==&$$#%$Xoo#-==;**&$%=&==&*=%-$&*=*-&$%$Xo",
"o#;;-=;*=**-=*=:;:-=-==-&%%%$$Xoo#:--;=&%$&&*==%=&&=%&=*=;=*&$Xo",
"o#:----*-*=**=-;;;;=-*=&$*%@#$Xoo#;;;-=&$@$#**==-%&*&&-=-:--%$Xo",
"o#;=-=-*=-===-=-;----=**&&&#$$Xoo#;;-;&**%$@=*%==&$=&==&-;--*$Xo",
"o#========--=--=---=-=*=&*&$&$Xoo#;;--**-*&$%%#==-$*&*==;-=-*$Xo",
"o#==-*-=-==-=--=;-*=:*-=***$$$Xoo#-;-=-&-=&$%$$==**&$*-=--==&$Xo",
"o@@@OoXXX............XXXXoO@@@Xoo@@@OoXXX............XXXXoO@@@Xo",
"o                              oo                              o",
"oXXXXXXXXXXXXXXXXXXXXXXXXXXXXXXooXXXXXXXXXXXXXXXXXXXXXXXXXXXXXXo",
"oooooooooooooooooooooooooooooooooooooooooooooooooooooooooooooooo",
"----------*&&%Xoo%&&*---------------------*&&%Xoo%&&*-----------",
";*=-=&-==&&&$$Xoo#;--*&-;--&%&=--;;;==%=***&#$Xoo#*-==-*==-=****",
"-*-*-%-*$&$#&$Xoo#:==&==;=-%$$=&---*&=&*&**%@$Xoo#&====*=*-%=&-*",
"=*--=*-==$##%$Xoo#;=-*=*-**&%$%=-=**=-*&$=&#@$Xoo#==--=====&**&&",
"--:----;&#$$%$Xoo#-=-;=-&=**&%*=-=*===*%$=&$#$Xoo#*-;-*-=*$=*%**",
";;-=&-==#$#*$$Xoo#--;;;=-&-$&&&=;&*===-&&=$$$$Xoo#=--=;-;=&=*$*=",
";;;=--==&$$#%$Xoo#=--;;;=&-$&&%*-%=*=&==*&&$%$Xoo#-;-=;-=&&&*=*;",
";:-=-==-&%%%$$Xoo#==;;;;&%*#=&&=-&&=&%=-&**$&$Xoo#;;-=;*=**-=*=:",
";;;=-*=&$*%@#$Xoo#=;-;--*$&&*=%=*$&=&=====&#%$Xoo#:----*-*=**=-;",
";----=**&&&#$$Xoo#*---;-&%&****=&$%=***===&$&$Xoo#;=-=-*=-===-=-",
"---=-=*=&*&$&$Xoo#=;-=--%&=&&**&%#%=&&*-==&$#$Xoo#========--=--=",
";-*=:*-=***$$$Xoo#=-;=;***&&&*=&$@*=*=-===&%&$Xoo#==-*-=-==-=--=",
".....XXXXoO@@@Xoo@@@OoXXX............XXXXoO@@@Xoo@@@OoXXX.......",
"               oo                              oo               ",
"XXXXXXXXXXXXXXXooXXXXXXXXXXXXXXXXXXXXXXXXXXXXXXooXXXXXXXXXXXXXXX",
"oooooooooooooooooooooooooooooooooooooooooooooooooooooooooooooooo",
"o%&&*---------------------*&&%Xoo%&&*---------------------*&&%Xo",
"o#;--*&-;--&%&=--;;;==%=***&#$Xoo#*-==-*==-=****;*=-=&-==&&&$$Xo",
"o#:==&==;=-%$$=&---*&=&*&**%@$Xoo#&====*=*-%=&-*-*-*-%-*$&$#&$Xo",
"o#;=-*=*-**&%$%=-=**=-*&$=&#@$Xoo#==--=====&**&&=*--=*-==$##%$Xo",
"o#-=-;=-&=**&%*=-=*===*%$=&$#$Xoo#*-;-*-=*$=*%**--:----;&#$$%$Xo",
"o#--;;;=-&-$&&&=;&*===-&&=$$$$Xoo#=--=;-;=&=*$*=;;-=&-==#$#*$$Xo",
"o#=--;;;=&-$&&%*-%=*=&==*&&$%$Xoo#-;-=;-=&&&*=*;;;;=--==&$$#%$Xo",
"o#==;;;;&%*#=&&=-&&=&%=-&**$&$Xoo#;;-=;*=**-=*=:;:-=-==-&%%%$$Xo",
"o#=;-;--*$&&*=%=*$&=&=====&#%$Xoo#:----*-*=**=-;;;;=-*=&$*%@#$Xo",
"o#*---;-&%&****=&$%=***===&$&$Xoo#;=-=-*=-===-=-;----=**&&&#$$Xo",
"o#=;-=--%&=&&**&%#%=&&*-==&$#$Xoo#========--=--=---=-=*=&*&$&$Xo",
"o#=-;=;***&&&*=&$@*=*=-===&%&$Xoo#==-*-=-==-=--=;-*=:*-=***$$$Xo",
"o@@@OoXXX............XXXXoO@@@Xoo@@@OoXXX............XXXXoO@@@Xo",
"o                              oo                              o",
"oXXXXXXXXXXXXXXXXXXXXXXXXXXXXXXooXXXXXXXXXXXXXXXXXXXXXXXXXXXXXXo"
};
