/* XPM */
static char *_02895bc974449b89104916279fe10bb1jiVySgGV9jvAGgF[] = {
/* columns rows colors chars-per-pixel */
"64 64 28 1 ",
"  c #302410",
". c #403018",
"X c #483818",
"o c #543C1C",
"O c #5C4020",
"+ c #6C4824",
"@ c #744C28",
"# c #646464",
"$ c gray44",
"% c #7C7C7C",
"& c #80502C",
"* c #885830",
"= c #905C34",
"- c #9C6038",
"; c #A0643C",
": c #A86840",
"> c #B47044",
", c #BC7848",
"< c #C87C4C",
"1 c #D08050",
"2 c gray55",
"3 c #989898",
"4 c gray66",
"5 c #B4B4B4",
"6 c #C0C0C0",
"7 c #D0D0D0",
"8 c gainsboro",
"9 c #FCE8DC",
/* pixels */
"22%$$%%22233532%342332%22%%22%35$2%%%%33322%22%2342%%%%22%332223",
"52::::::::::::::::::::::::::::&343::::::::::::::::::::::::::::&3",
"54:&+O&&@&&*&&&&++O&@&@@O*&@&&.273:&@&&@&&@o@O&@&&&&&@@=&==&@&.%",
"54:@*@@=@O@&@+&&&**&=*&@+@**=*.%74:&@&;;===&=@&&==*&*=*;;;===-.%",
"54:@&*&=&@O+@O+&&***&**=*@&*==.$74:.OO&====*;=*@&;*&&==*=;====.%",
"44:@O&&@&=&===+**@***&&==**=;=.$74:O&@&@&*=====*@=***@=*&=====.$",
"36:@+@@+@=&&@==*&@=*=*=*=*&**@.$66:&*&**@&*;=**=&===&&=*@@&@&*.#",
"35:&*+&=*=@@O&=@&*&&&@***=*&&*.#77:&@*@=--@&@&*&==;=O*==*&Oo&&.$",
"36:&&@O@+&@==&=&@+&&@O@**=====.%57:&;=&&*=&&&*:O&**&&@;;;=&@@&.#",
"45:**=@&&;;:*&O==@*=*@*&&&==-=.#67:@=*=*&+*=*=:OO*&+=&&=&=**&*.#",
"53:*=;=&+&&=*&O&=&&*=&&+@**&==.%66:==@;=*;&====;*&&*+=**&=;;==.%",
"66:*;o.O.oOO==@O&&**+O+&&=;==*.%65:*;O&=O>;-*&=;;**=&O==*;=*=:.%",
"67:;OO+;@+:=+&=XO+O+@&&@++=&&@.#66:@*&O&&O;@@o+OOOoO@oOO@&+O@*.$",
"65&............................#65&............................#",
"563%$###$$$##$%$#####$$$%%%$$##$433%%$$$%%$%%$$#%%#$$%%$#$%%$###",
"7767765443443223455445554445556654345555555555445556556667898777",
"4443333445553333224444333333344343433444444433433443433343555665",
":::::::::::::::&3%::::::::::::::::::::::::::::&33:::::::::::::::",
"&*;*&=&*&+=&&==.2%:&&**&@:=+**=&;@&&**=**&@@@@.%2:&@+&;=*@@&@@@@",
"&&&*=*&@@@*&&&@.%%:&=&&&@**@**=O&&&&&*-*&=&&*=.%%:**&*@&&*@@&*&&",
"&==*=**&======*.$2:&=&&&@**&=*=&@&&*@&;===*&**.%2:@@==&*&***=**=",
"*****&===**=*=*.$2:@;*=&@@@&@&*&=@*&**==**;&*:.$%:o.@*&&*&=&=&&&",
"&&==&*=&*=*=**=.$3:o&=&&=&&=&;*@*+**&=;=*&*&;;.#2:;+o*;==*&*=&&&",
"=*&**=**=&=*=**.#3:=..@@@=*=@+&@&*;*+&*====;;=.$%:+=Oo==*&;@=*++",
"*;;*=*-=;&**;=&.%4:=>+.&&=*&*@+O+@==*=*=*:;;=>.#%:=@@oO==&&&O@==",
"=**=**&+&***=;&.#4:@=,@X=&=&=:;&@&&*&=;;**&=,:.#%:&@+++O=&@&&@&&",
"=*===;=&=;*&*&&.%4:=+&,+O=*=*==*@=*=&&;;=*&=1:.%2:@*@O@OO===;&&&",
"*=@**==;==&&&@O.%3:=*O;;O&&;=**&@@+&**&*=*=&,<.%4:***@o@OO=&O&=*",
"@**;&&&&@+&&O+o.#3:+*&O*Oo+OoO&*o@+@O=;&@@=@+>.$4:*=;=+OO.XO.O@O",
"................#2&............................#3&..............",
"$#####$$$%%%$$##$23%%$$$%%$%%$$#%%#$$%%$#$%%$###23%$###$$$##$%$#",
"6545555453445665533333344343433444444433433443433432232333543333",
"3333344434445544653333444444443333333333333333444443454344533444",
"2%::::::::::::::::::::::::::::&3%2::::::::::::::::::::::::::::&3",
"32:=@&&&@&@;=;:@=&*==&;;:&=&&=.%4%:@&@&*&=+===***=&&*===&&&&*=.2",
"2%:*&O&++@+@=&=&&O==@&==**&&&=.%42:O@=&***&&==*=*=&=&=*=*&*===.%",
"32:&&*@&=*@*&==&=&*&&=@***===&.%42:=@=;;;&=&=*&=**&=*=====*===.$",
"32:@*&;O;:O==*@==*=+=;@&=*;===.$53:&=+*+&==;&***&&@@=*=*;=*&&=.$",
"33:&&+;+O+&@==@&&=&@@*@*;==*=*.#53:*&@&=*&*=&**&*==&=*****===&.$",
"33:&&*O==+&@@@==*&&&&&=&=*&&@;.$64:=&*@=*=*=*====&=****=;=;=*=.#",
"34:&=@&+=;&==&O;;&=;=*&&+@@@@=.#74:&&=**=&==*=**==***==*=&**&=.%",
"44:*=@&@+===*;=@=;;*@&==@&&*&*.#74:&*=**===&=&*=*=*=*=**====*&.#",
"54:**=@*o@;;&=;@&*=;==&=*=@**=.%76:**;*&&*;***==**&**=*=&*===*.%",
"56:@+=&@&@&*&&&==+O&@&+*&;&===.%76:=&**@&+=;====***=*=**=*=*=*.%",
"56:@&&&oo+@@+@@++;@@@&@&&+@&+=.$66:&@&*&@OO&&=@*&@@&&&*@***&@+.#",
"36&............................#42&............................#",
"233%%$$$%%$%%$$#%%#$$%%$#$%%$###663%$###$$$##$%$#####$$$%%%$$##$",
"%23223334443%22%%%%2%3333323233556665446545555453445667767676666",
"3443433433334333322233333353343543346735533444443334434435455445",
":::::::::::::::&32::::::::::::::::::::::::::::&34:::::::::::::::",
"&&&&&@*&=;*=@&*.23:=+&;**OO&*&;&=&*&*+*OO===;=.%2:=@&*OoOOOO@&@=",
"@==&&**==&*;-*&.%3:@@O&&@**=+*&&&&=@*@*=O&&*==.%4:&&@&+oO&+&@=O@",
"=&&*&&&**====&=.$3:@=@O@===@O&@&**&=*&@*@&**=-.%4:*&*&;*+@@+o*=O",
"==****===;;==*=.$4:@*&&++@O*=**&*&&=&&*&**&;==.$4:*&*&=;=@@O=O==",
"@**@=**=*==;*=*.$4:+oO&=@++@**&*@&&=&&==******.#4:=&*=*=+;;@&&@&",
"&&*==**=&*==*==.#5:*=O@+*&=**=*&&&=&&*==&&&@**.$5:&&&=*&&==*O=&@",
"*;*=*====*==*==.%4:&:**&==&*==*+&=+=&=*=*&**=;.#4:*@+*&&&&=;+@&&",
"&&&=&*=;====&**.#4:@&=&=***&=&&&;;:=*=&=&&;;==.#5:*&@@==&=*=;&&@",
":@===&&==;;=&&&.%2:=*=&O&@=*=&===;=+*=**+*****.%4:*&&@&&@:=*;=+=",
",*=&*=**;;===&@.%4:&@@&&=*=-*=&=***@@@O++&=*@*.%6:+&*@.@o&;@*&@&",
"&&&&@==&OOO@@OO.#4:o..X&&*&**&@O**@XXoo+Oo&&*+.$5:o@@&@O. @@++OO",
"................#4&............................#4&..............",
"$#####$$$%%%$$##$23%%$$$%%$%%$$#%%#$$%%$#$%%$###23%$###$$$##$%$#",
"2%%%%232%2223223%222%%22%%%2%22%%2423224432%%232332%%22%22223232"
};
